<?xml version="1.0" encoding="utf-8"?>
<!-- Generator: Adobe Illustrator 24.1.1, SVG Export Plug-In . SVG Version: 6.00 Build 0)  -->
<svg version="1.1" id="Camada_1" xmlns="http://www.w3.org/2000/svg" xmlns:xlink="http://www.w3.org/1999/xlink" x="0px" y="0px"
	 viewBox="0 0 400 284" style="enable-background:new 0 0 400 284;" xml:space="preserve">
<g>
	<path style="fill:#414042;" d="M266.2,102.2c0-36.5-29.7-66.2-66.2-66.2s-66.2,29.7-66.2,66.2c0,3.5,0.5,7.4,1.2,11.5
		c-0.9,4.3-0.7,9,0.6,13.8c1.7,6.2,4.5,13.8,10.7,18.1c14.6,30.1,38.6,59.4,53.7,59.4c15.1,0,39.1-29.3,53.7-59.4
		c6.1-4.3,9-11.9,10.7-18.1c1.3-4.8,1.5-9.5,0.6-13.8C265.8,109.6,266.2,105.8,266.2,102.2z M258.4,125.9
		c-4,14.8-10.3,16.8-15.9,16.8c-1.7,0-3.1,1.4-3.1,3.1c0,1.7,1.4,3.1,3.1,3.1c0.9,0,1.7,0,2.6-0.1c-2.6,4.9-5.5,9.8-8.6,14.7
		C223,184.3,208,198.8,200,198.8s-23-14.5-36.4-35.3c-3.2-4.9-6-9.8-8.6-14.7c0.8,0.1,1.7,0.1,2.6,0.1c1.7,0,3.1-1.4,3.1-3.1
		c0-1.7-1.4-3.1-3.1-3.1c-5.6,0-11.9-2-15.9-16.8c-2.6-9.6,0.3-18.1,7.8-22.8c1.5-0.9,1.9-2.8,1-4.3c-0.9-1.5-2.8-1.9-4.3-1
		c-2.4,1.5-4.4,3.3-6,5.3c0-0.3,0-0.5,0-0.8c0-33.1,26.9-60,60-60c33.1,0,60,26.9,60,60c0,0.3,0,0.5,0,0.8c-1.7-2-3.7-3.8-6-5.3
		c-1.5-0.9-3.4-0.5-4.3,1c-0.9,1.5-0.5,3.4,1,4.3C258.1,107.7,261,116.2,258.4,125.9z"/>
	<path style="fill:#414042;" d="M192.1,126.9c0-15.3-20.3-23.2-29-23.2c-9.2,0-16.8,7.5-16.8,16.8c0,9.2,7.5,16.8,16.8,16.8h1.8
		c5,0,10.8-0.1,15.7-1.1C188.2,134.8,192.1,131.7,192.1,126.9z M162.4,110.9c-6.2,1.1-10.1,6.3-11.4,12.2
		c-0.8-6.8,3.7-13.1,10.4-14.5c6-1.3,12.5,1.5,17.3,5.1C173.5,112.1,167.8,109.9,162.4,110.9z"/>
	<path style="fill:#414042;" d="M237,103.7c-8.7,0-29,7.9-29,23.2c0,10.4,18.4,10.4,27.2,10.4h1.8c9.2,0,16.8-7.5,16.8-16.8
		C253.7,111.3,246.2,103.7,237,103.7z M249.1,123.1c-1.3-5.9-5.1-11.1-11.4-12.2c-5.5-1-11.1,1.2-16.3,2.7
		c4.7-3.5,11.3-6.4,17.3-5.1C245.5,110,249.9,116.3,249.1,123.1z"/>
	<path style="fill:#414042;" d="M193.8,141.4c0,1.2,2.3,8.7,3.7,8.7c1.4,0,1.5-7.5,1.5-8.7c0-1.2-1.2-2.2-2.6-2.2
		C194.9,139.2,193.8,140.2,193.8,141.4z"/>
	<path style="fill:#414042;" d="M203.6,139.2c-1.4,0-2.6,1-2.6,2.2c0,1.2,0,8.7,1.5,8.7c1.4,0,3.7-7.5,3.7-8.7
		C206.2,140.2,205.1,139.2,203.6,139.2z"/>
	<path style="fill:#414042;" d="M211,173.9H189c-1.7,0-3.1,1.4-3.1,3.1c0,1.7,1.4,3.1,3.1,3.1H211c1.7,0,3.1-1.4,3.1-3.1
		C214.2,175.3,212.8,173.9,211,173.9z"/>
</g>
<defs>
	<filter id="Adobe_OpacityMaskFilter" filterUnits="userSpaceOnUse" x="133.8" y="205" width="132.5" height="169">
		<feColorMatrix  type="matrix" values="1 0 0 0 0  0 1 0 0 0  0 0 1 0 0  0 0 0 1 0"/>
	</filter>
</defs>
<mask maskUnits="userSpaceOnUse" x="133.8" y="205" width="132.5" height="169" id="SVGID_1_">
	<g style="filter:url(#Adobe_OpacityMaskFilter);">
		<linearGradient id="SVGID_2_" gradientUnits="userSpaceOnUse" x1="192.0793" y1="274.3962" x2="192.0793" y2="205.0409">
			<stop  offset="0" style="stop-color:#000000"/>
			<stop  offset="8.659510e-02" style="stop-color:#070707"/>
			<stop  offset="0.2172" style="stop-color:#1C1C1C"/>
			<stop  offset="0.3755" style="stop-color:#3E3E3E"/>
			<stop  offset="0.5557" style="stop-color:#6D6D6D"/>
			<stop  offset="0.7542" style="stop-color:#AAAAAA"/>
			<stop  offset="0.9651" style="stop-color:#F2F2F2"/>
			<stop  offset="1" style="stop-color:#FFFFFF"/>
		</linearGradient>
		<rect x="100.2" y="205" style="fill:url(#SVGID_2_);" width="183.7" height="69.4"/>
	</g>
</mask>
<g style="opacity:0.4;mask:url(#SVGID_1_);">
	<path style="fill:#414042;" d="M266.2,307.8c0,36.5-29.7,66.2-66.2,66.2s-66.2-29.7-66.2-66.2c0-3.5,0.5-7.4,1.2-11.5
		c-0.9-4.3-0.7-9,0.6-13.8c1.7-6.2,4.5-13.8,10.7-18.1c14.6-30.1,38.6-59.4,53.7-59.4c15.1,0,39.1,29.3,53.7,59.4
		c6.1,4.3,9,11.9,10.7,18.1c1.3,4.8,1.5,9.5,0.6,13.8C265.8,300.4,266.2,304.2,266.2,307.8z M258.4,284.1
		c-4-14.8-10.3-16.8-15.9-16.8c-1.7,0-3.1-1.4-3.1-3.1c0-1.7,1.4-3.1,3.1-3.1c0.9,0,1.7,0,2.6,0.1c-2.6-4.9-5.5-9.8-8.6-14.7
		C223,225.7,208,211.2,200,211.2s-23,14.5-36.4,35.3c-3.2,4.9-6,9.8-8.6,14.7c0.8-0.1,1.7-0.1,2.6-0.1c1.7,0,3.1,1.4,3.1,3.1
		c0,1.7-1.4,3.1-3.1,3.1c-5.6,0-11.9,2-15.9,16.8c-2.6,9.6,0.3,18.1,7.8,22.8c1.5,0.9,1.9,2.8,1,4.3c-0.9,1.5-2.8,1.9-4.3,1
		c-2.4-1.5-4.4-3.3-6-5.3c0,0.3,0,0.5,0,0.8c0,33.1,26.9,60,60,60c33.1,0,60-26.9,60-60c0-0.3,0-0.5,0-0.8c-1.7,2-3.7,3.8-6,5.3
		c-1.5,0.9-3.4,0.5-4.3-1c-0.9-1.5-0.5-3.4,1-4.3C258.1,302.3,261,293.8,258.4,284.1z"/>
	<path style="fill:#414042;" d="M192.1,283.1c0,15.3-20.3,23.2-29,23.2c-9.2,0-16.8-7.5-16.8-16.8c0-9.2,7.5-16.8,16.8-16.8l1.8,0
		c5,0,10.8,0.1,15.7,1.1C188.2,275.2,192.1,278.3,192.1,283.1z M162.4,299.1c-6.2-1.1-10.1-6.3-11.4-12.2
		c-0.8,6.8,3.7,13.1,10.4,14.5c6,1.3,12.5-1.5,17.3-5.1C173.5,297.9,167.8,300.1,162.4,299.1z"/>
	<path style="fill:#414042;" d="M237,306.3c-8.7,0-29-7.9-29-23.2c0-10.4,18.4-10.4,27.2-10.4l1.8,0c9.2,0,16.8,7.5,16.8,16.8
		C253.7,298.7,246.2,306.3,237,306.3z M249.1,286.9c-1.3,5.9-5.1,11.1-11.4,12.2c-5.5,1-11.1-1.2-16.3-2.7
		c4.7,3.5,11.3,6.4,17.3,5.1C245.5,300,249.9,293.7,249.1,286.9z"/>
	<path style="fill:#414042;" d="M193.8,268.6c0-1.2,2.3-8.7,3.7-8.7c1.4,0,1.5,7.5,1.5,8.7c0,1.2-1.2,2.2-2.6,2.2
		C194.9,270.8,193.8,269.8,193.8,268.6z"/>
	<path style="fill:#414042;" d="M203.6,270.8c-1.4,0-2.6-1-2.6-2.2c0-1.2,0-8.7,1.5-8.7c1.4,0,3.7,7.5,3.7,8.7
		C206.2,269.8,205.1,270.8,203.6,270.8z"/>
	<path style="fill:#414042;" d="M211,236.1H189c-1.7,0-3.1-1.4-3.1-3.1c0-1.7,1.4-3.1,3.1-3.1H211c1.7,0,3.1,1.4,3.1,3.1
		C214.2,234.7,212.8,236.1,211,236.1z"/>
	<path style="fill:#414042;" d="M183.6,320h32.8c1,0,1.9,0.8,1.9,1.9c0,1-0.8,1.9-1.9,1.9h-32.8c-1,0-1.9-0.8-1.9-1.9
		C181.7,320.8,182.6,320,183.6,320z"/>
	<path style="fill:#414042;" d="M207.8,315.6c0,1-0.8,1.9-1.9,1.9h-11.9c-1,0-1.9-0.8-1.9-1.9c0-1,0.8-1.9,1.9-1.9h11.9
		C207,313.8,207.8,314.6,207.8,315.6z"/>
</g>
</svg>
