<?xml version="1.0" encoding="utf-8"?>
<!-- Generator: Adobe Illustrator 24.1.1, SVG Export Plug-In . SVG Version: 6.00 Build 0)  -->
<svg version="1.1" id="Camada_1" xmlns:sketch="http://www.bohemiancoding.com/sketch/ns"
	 xmlns="http://www.w3.org/2000/svg" xmlns:xlink="http://www.w3.org/1999/xlink" x="0px" y="0px" viewBox="0 0 800 800"
	 style="enable-background:new 0 0 800 800;" xml:space="preserve">
<rect x="178" y="112" style="fill-rule:evenodd;clip-rule:evenodd;fill:#FFFFFF;" width="448" height="539"/>
<desc>Created with Sketch Beta.</desc>
<g id="Page-1" sketch:type="MSPage">
	<g id="Icon-Set-Filled" transform="translate(-518.000000, -985.000000)" sketch:type="MSLayerGroup">
		<path id="arrow-up-square" sketch:type="MSShapeGroup" style="fill-rule:evenodd;clip-rule:evenodd;fill:#147CC9;" d="
			M1081.4,1373.4c-9.7,9.8-25.6,9.8-35.3,0l-103-103V1535c0,13.7-11.2,25-25,25c-13.8,0-25-11.3-25-25v-264.6l-103,103
			c-9.8,9.8-25.6,9.8-35.4,0c-9.8-9.7-9.8-25.6,0-35.3L896,1196.6c6-6,14.2-7.9,22-6.5c7.8-1.4,16,0.5,22,6.5l141.4,141.4
			C1091.2,1347.8,1091.2,1363.6,1081.4,1373.4L1081.4,1373.4z M1218,985H618c-55.2,0-100,44.8-100,100v600c0,55.3,44.8,100,100,100
			h600c55.2,0,100-44.7,100-100v-600C1318,1029.8,1273.2,985,1218,985L1218,985z"/>
	</g>
</g>
</svg>
