<?xml version="1.0" encoding="utf-8"?>
<!-- Generator: Adobe Illustrator 24.1.1, SVG Export Plug-In . SVG Version: 6.00 Build 0)  -->
<svg version="1.1" id="Camada_1" xmlns="http://www.w3.org/2000/svg" xmlns:xlink="http://www.w3.org/1999/xlink" x="0px" y="0px"
	 viewBox="0 0 400 284" style="enable-background:new 0 0 400 284;" xml:space="preserve">
<g>
	<g>
		<path style="fill:#414042;" d="M260.2,127.4c0.1-0.9,0.3-1.8,0.3-2.7c0.4-6.8-0.6-13.6-2.9-20.7c-2.1-6.3-5.4-12.7-9.9-19
			c-1.2-1.7-2.5-3.3-3.8-4.8V65.5c0-1-0.8-1.8-1.8-1.8h-6.9c0.7-1.2,1.4-2.4,1.9-3.6c0.3,0,0.7,0.1,1,0.1c5.5,0,10-4.3,10-9.6v-6.5
			c0-5.3-4.5-9.6-10-9.6c-0.2,0-0.3,0-0.5,0c-0.1-0.2-0.2-0.5-0.2-0.7c0,0,0,0-0.1-0.1c-5.3-12.6-18.1-21.5-33-21.5
			c-14.9,0-27.7,8.9-33,21.5c0,0,0,0-0.1,0.1c-0.1,0.3-0.2,0.5-0.3,0.8c-0.4-0.1-0.9-0.1-1.3-0.1c-5.5,0-10,4.3-10,9.6v6.5
			c0,5.3,4.5,9.6,10,9.6c0.6,0,1.2-0.1,1.8-0.2c0.6,1.3,1.2,2.5,1.9,3.7h-6.9c-1,0-1.8,0.8-1.8,1.8V80c-3.4,3.9-6.3,8.2-8.9,12.9
			c-3.3,6.1-7.9,16.4-8.1,27.4l-12.2-11.7v0l-15.5-15c-0.7-0.7-1.9-0.7-2.6,0l-20.9,20.2c-0.5,0.4-0.6,1.1-0.5,1.7
			c0.2,0.6,0.7,1.1,1.3,1.2l11.1,2.7l3.1,11c0.2,0.6,0.7,1.1,1.3,1.2c0.2,0,0.3,0.1,0.5,0.1c0.5,0,0.9-0.2,1.3-0.5l19.6-19
			l13.8,13.3c0.1,0.6,0.2,1.2,0.3,1.7c-0.3,1-0.4,2.2-0.4,3.6c0,7.7,4.5,13.8,10.2,13.8c2.6,0,4.8-1.3,6.6-3.3v17.2
			c0,1,0.8,1.8,1.8,1.8H177c-1.2,7.6-2,15.5-2.3,23.7c-0.1,3.4-0.2,6.5-0.1,9.5c0,0.4,0,0.7,0,1.1c0,1.2,0.1,2.5,0.2,3.7
			c-2.2,2.4-3.6,5.4-3.6,8.8c0,9.3,10.3,9.3,15.8,9.3c5.5,0,15.8,0,15.8-9.3c0-3-1.1-5.8-3-8c0.1-0.2,0.1-0.4,0.2-0.6l0.1-0.2
			c1.6-5.5,2.9-11.7,4-18.8c0.2-1.1,0.3-2.3,0.5-3.4c0.4,2.8,0.9,5.7,1.5,8.7c0.7,3.7,1.4,7,2.2,10.1c0.1,0.4,0.2,0.9,0.3,1.4
			c0.2,1,0.5,1.9,0.8,2.9c-1.9,2.3-3,5-3,8.1c0,9.3,10.3,9.3,15.8,9.3c5.5,0,15.8,0,15.8-9.3c0-3.4-1.4-6.4-3.6-8.8
			c0.1-0.5,0.2-1,0.2-1.5c0.3-5.9,0.1-12.4-0.5-20.4c-0.4-5.6-1.1-10.9-1.8-16h9.8c1,0,1.8-0.8,1.8-1.8v-17.2c1.8,2,4,3.2,6.6,3.2
			c5.7,0,10.2-6.1,10.2-13.8C260.7,129.6,260.5,128.4,260.2,127.4z M256.9,122.8c-2-1.2-4.4-1.4-6.5-1.4c-2.7,0-6.1,0.4-8.1,2.8
			c-1.4-3.1-3.1-6.2-4.8-9.2l17.3-7.7C256.3,112.6,257,117.7,256.9,122.8z M234.9,110.5l-1-1.7c-0.3-0.5-0.6-1-0.9-1.5l18.7-8.3
			c0.6,1.4,1.2,2.8,1.7,4.1l-18.1,8C235.2,110.9,235.1,110.7,234.9,110.5z M240.2,67.3v8.8c-0.9-0.9-1.8-1.8-2.7-2.6
			c-0.6-0.5-1.1-1-1.7-1.5c-0.1-0.1-0.3-0.2-0.5-0.4c-0.1-0.1-0.2-0.1-0.3-0.2c0,0-0.1-0.1-0.1-0.1c0,0,0,0,0,0v0
			c-0.2-0.2-1.5-1.7-1.7-1.8c-0.3-0.3-0.7-0.6-1.2-0.6c-0.1,0-0.2,0-0.2,0c-0.1-0.1-0.2-0.1-0.3-0.2c0.4-0.5,0.9-1,1.3-1.6H240.2z
			 M176,61.1c8.6,1.4,18.2,2.2,28.3,2.2c10.1,0,19.7-0.8,28.3-2.2c-5.4,9.8-16,16.4-28.3,16.4C192,77.6,181.4,70.9,176,61.1z
			 M209.8,33.7l-14,26c-2.2-0.1-4.3-0.2-6.4-0.4l13.8-25.7c0.3,0,0.7,0,1,0C206.1,33.5,207.9,33.6,209.8,33.7z M197.7,33.7l-13.5,25
			c-2.1-0.2-4.1-0.5-6.1-0.8L190.9,34C193.2,33.9,195.4,33.7,197.7,33.7z M244.4,44.1v6.5c0,3.3-2.7,6-6.1,6.1c0,0,0,0,0-0.1
			c0.2-0.6,0.3-1.1,0.4-1.7c0.1-0.5,0.3-1,0.4-1.5c0.1-0.7,0.2-1.4,0.3-2c0.1-0.4,0.1-0.8,0.2-1.3c0.1-1.1,0.2-2.3,0.2-3.4
			c0-1.1-0.1-2.3-0.2-3.4c0-0.4-0.1-0.9-0.2-1.3c-0.1-0.7-0.2-1.3-0.3-2c-0.1-0.5-0.3-1.1-0.4-1.6c0-0.1,0-0.2-0.1-0.3
			C241.9,38.4,244.4,41,244.4,44.1z M204.3,15.8c12.2,0,22.9,6.7,28.3,16.4c-8.6-1.4-18.2-2.2-28.3-2.2c-10.1,0-19.7,0.8-28.3,2.2
			C181.4,22.5,192,15.8,204.3,15.8z M163.2,50.6v-6.5c0-3.4,2.8-6.1,6.3-6.1c0.1,0,0.1,0,0.2,0c0,0.2-0.1,0.3-0.1,0.5
			c-0.1,0.5-0.3,0.9-0.4,1.4c-0.2,0.7-0.2,1.4-0.3,2.2c-0.1,0.4-0.1,0.8-0.2,1.2c-0.1,1.1-0.2,2.3-0.2,3.4c0,1.1,0.1,2.3,0.2,3.4
			c0,0.4,0.1,0.7,0.2,1.1c0.1,0.8,0.2,1.5,0.4,2.2c0.1,0.5,0.2,0.9,0.3,1.4c0.2,0.6,0.3,1.2,0.5,1.9c0,0,0,0,0,0
			c-0.2,0-0.4,0.1-0.6,0.1C166.1,56.7,163.2,54,163.2,50.6z M168.3,67.3h7.5c0.4,0.5,0.8,1.1,1.3,1.6c-1,0.5-1.9,1-2.7,1.7
			c-0.7,0.6-1.3,1.2-2,1.7c-1.3,1.1-2.7,2.3-4,3.6c0,0-0.1,0.1-0.1,0.1V67.3z M156.8,99.1l18.6,8.3c-0.8,1.3-1.6,2.6-2.3,3.9l-18-8
			C155.6,101.8,156.2,100.4,156.8,99.1z M153.6,107.4l17.3,7.7c-0.8,1.4-1.5,2.8-2.2,4.2c-0.3,0.6-0.6,1.3-0.9,1.9
			c-0.5,1-1,2-1.5,3.1c-2.1-2.4-5.4-2.8-8.2-2.8c-2.1,0-4.6,0.2-6.6,1.5C151.1,117.5,152.1,112.2,153.6,107.4z M158.1,141.2
			c-3.6,0-6.6-4.7-6.6-10.3c0-0.7,0-1.3,0.1-1.8l5.2,5c0.4,0.3,0.8,0.5,1.3,0.5c0.5,0,0.9-0.2,1.3-0.5c0.7-0.7,0.7-1.8,0-2.5
			l-5.9-5.7c1.1-0.7,2.6-0.9,4.6-0.9c4.4,0,6.6,0.9,6.6,6C164.6,136.5,161.6,141.2,158.1,141.2z M168.3,156.9v-28.6
			c0.9-1.9,1.8-3.8,2.7-5.7c0.3-0.6,0.6-1.3,0.9-1.9c1.6-3.2,3.4-6.4,5.3-9.5c1,9.2,2.9,17.8,5.6,25.1c-1.1,1.9-1.7,4.1-2.2,6.1
			l-0.2,0.9c-1.1,4.4-2,9-2.8,13.6H168.3z M178.9,176.1c0.1-1.4,0.2-2.7,0.4-4.1h22.2c-0.2,1.4-0.3,2.7-0.5,4.1H178.9z M187.1,213
			c-9.1,0-12.2-1.5-12.2-5.8c0-5.7,5.4-10.3,12.2-10.3c6.7,0,12.2,4.6,12.2,10.3C199.2,211.5,196.2,213,187.1,213z M196.9,196.4
			c-2.7-1.9-6.1-3-9.8-3c-3.2,0-6.2,0.9-8.8,2.3c0-0.3,0-0.7-0.1-1c0-0.4,0-0.8,0-1.1c-0.1-2.9,0-5.9,0.1-9.3
			c0.1-1.3,0.2-2.5,0.2-3.8h21.7C199.3,186.4,198.2,191.7,196.9,196.4z M204.6,156.9c-1,0-1.8,0.7-1.8,1.7c-0.2,3-0.5,6-0.8,9h-22.3
			c1-8.2,2.4-16.1,4.2-23.4l0.2-1c0.5-2,1-4,2-5.6c0-0.1,0.1-0.1,0.1-0.2c0.3-0.5,0.4-1.1,0.2-1.6c-3.3-8.6-5.4-19.1-6.2-30.4
			c0-0.8-0.6-1.4-1.4-1.6c-0.2-0.1-0.5-0.1-0.7,0l-19.6-8.7c0.1-0.2,0.2-0.4,0.3-0.6c3.3-6,7.3-11.5,12-16.2
			c1.2-1.2,2.4-2.3,3.8-3.4c0.7-0.6,1.4-1.2,2-1.8c0.8-0.7,1.8-1.3,2.8-1.6c6.4,5.9,15.1,9.5,24.6,9.5c9.5,0,18.1-3.6,24.5-9.5
			c1.3,0.4,2.4,1.1,3.3,2.1c0.3,0.4,0.8,0.7,1.1,1c0.1,0.1,0.2,0.1,0.2,0.1c0.5,0.4,1.1,0.9,1.6,1.4c1.1,0.9,2.1,1.9,3.2,3.1
			c2.3,2.4,4.4,5,6.4,7.7c1.9,2.7,3.6,5.4,5,8.1l-19.8,8.8c-0.2,0-0.3,0-0.5,0c-0.8,0.2-1.3,0.8-1.4,1.6c-0.8,11-2.9,21.3-6.2,29.9
			c-0.2,0.6-0.1,1.3,0.3,1.8c0.7,0.8,1.3,1.7,1.7,2.7c1.8,5,2.9,10.5,3.9,15.7c0.7,3.9,1.3,7.9,1.8,12.1h-22.3
			c-0.3-3.1-0.6-6.1-0.8-9C206.4,157.7,205.6,156.9,204.6,156.9z M230.4,176.1h-22.1c-0.2-1.4-0.4-2.7-0.6-4.1H230
			C230.2,173.3,230.3,174.7,230.4,176.1z M222.2,213c-9.1,0-12.2-1.5-12.2-5.8c0-5.7,5.4-10.3,12.2-10.3c6.7,0,12.2,4.6,12.2,10.3
			C234.4,211.5,231.3,213,222.2,213z M222.2,193.4c-3.7,0-7.1,1.1-9.8,3c-0.1-0.3-0.2-0.6-0.2-0.9c-0.1-0.5-0.2-0.9-0.3-1.4
			c-0.8-3-1.5-6.2-2.1-9.9c-0.2-1.3-0.4-2.5-0.6-3.7h21.6c0.4,5.7,0.4,10.7,0.3,15.2C228.5,194.2,225.5,193.4,222.2,193.4z
			 M240.2,156.9h-8.6c-0.1-0.7-0.2-1.4-0.3-2.1c-1-5.3-2.1-10.9-4-16.2c-0.4-1.1-1-2.1-1.7-3c2.7-7.2,4.6-15.6,5.6-24.4l0.6,1
			c0.3,0.5,0.5,0.9,0.8,1.4l1.4,2.9l0.2-0.1c2.1,3.7,4.2,7.6,5.8,11.5c0,0.1,0.1,0.2,0.1,0.3c0,0,0-0.1,0.1-0.1V156.9z M250.4,141.2
			c-3.6,0-6.6-4.7-6.6-10.3c0-5.1,2.2-6,6.6-6c4.4,0,6.6,0.9,6.6,6C257,136.5,254,141.2,250.4,141.2z"/>
		<rect x="188.3" y="94.6" style="fill:#414042;" width="32" height="17.3"/>
	</g>
	<defs>
		<filter id="Adobe_OpacityMaskFilter" filterUnits="userSpaceOnUse" x="148.6" y="216.5" width="111.4" height="80.5">
			<feColorMatrix  type="matrix" values="1 0 0 0 0  0 1 0 0 0  0 0 1 0 0  0 0 0 1 0"/>
		</filter>
	</defs>
	<mask maskUnits="userSpaceOnUse" x="148.6" y="216.5" width="111.4" height="80.5" id="SVGID_1_">
		<g style="filter:url(#Adobe_OpacityMaskFilter);">
			<linearGradient id="SVGID_2_" gradientUnits="userSpaceOnUse" x1="209.2367" y1="291.9459" x2="209.2367" y2="216.5286">
				<stop  offset="0" style="stop-color:#000000"/>
				<stop  offset="8.659510e-02" style="stop-color:#070707"/>
				<stop  offset="0.2172" style="stop-color:#1C1C1C"/>
				<stop  offset="0.3755" style="stop-color:#3E3E3E"/>
				<stop  offset="0.5557" style="stop-color:#6D6D6D"/>
				<stop  offset="0.7542" style="stop-color:#AAAAAA"/>
				<stop  offset="0.9651" style="stop-color:#F2F2F2"/>
				<stop  offset="1" style="stop-color:#FFFFFF"/>
			</linearGradient>
			<rect x="105.7" y="216.5" style="fill:url(#SVGID_2_);" width="207" height="75.4"/>
		</g>
	</mask>
	<g style="opacity:0.4;mask:url(#SVGID_1_);">
		<path style="fill:#414042;" d="M152.4,297c1.1-3.1,3.3-5.2,5.6-5.2c2.4,0,4.5,2.1,5.6,5.2h4.6v-20.9h9.3c0.8,4.7,1.7,9.2,2.8,13.6
			l0.2,0.9c0.5,2,1,4.2,2.2,6.1c0,0.1,0,0.1-0.1,0.2h3.8c0.1-0.5,0.1-1-0.2-1.4c0-0.1-0.1-0.1-0.1-0.2c-1-1.6-1.5-3.6-2-5.6l-0.2-1
			c-1.9-7.4-3.3-15.2-4.2-23.4H202c0.3,3,0.6,6,0.8,9c0.1,0.9,0.9,1.6,1.8,1.6c1,0,1.8-0.7,1.8-1.7c0.2-2.9,0.4-5.9,0.8-9h22.3
			c-0.5,4.2-1.1,8.2-1.8,12.1c-0.9,5.2-2.1,10.6-3.9,15.7c-0.4,1-0.9,1.9-1.7,2.7c-0.3,0.3-0.4,0.7-0.4,1.1h4.1
			c0.6-0.8,1-1.7,1.4-2.6c1.9-5.3,3.1-10.9,4-16.2c0.1-0.7,0.2-1.4,0.3-2.1h8.6V297h4.6c1.2-3.1,3.3-5.2,5.6-5.2s4.5,2.1,5.6,5.2
			h3.9c-1.5-5.1-5.1-8.7-9.5-8.7c-2.5,0-4.8,1.2-6.6,3.2v-17.2c0-1-0.8-1.8-1.8-1.8h-9.8c0.8-5.1,1.4-10.4,1.8-16
			c0.6-8,0.8-14.5,0.5-20.4c0-0.5-0.1-1-0.2-1.5c2.3-2.4,3.6-5.5,3.6-8.8c0-9.3-10.3-9.3-15.8-9.3c-5.5,0-15.8,0-15.8,9.3
			c0,3,1.1,5.8,3,8.1c-0.3,1-0.6,1.9-0.8,2.9c-0.1,0.5-0.2,0.9-0.3,1.4c-0.8,3.1-1.5,6.4-2.2,10.1c-0.6,3-1,5.9-1.5,8.7
			c-0.2-1.1-0.3-2.3-0.5-3.4c-1.1-7.2-2.4-13.3-4-18.8l-0.1-0.2c0-0.2-0.1-0.4-0.2-0.6c1.9-2.3,3-5,3-8c0-9.3-10.3-9.3-15.8-9.3
			c-5.5,0-15.8,0-15.8,9.3c0,3.3,1.4,6.4,3.6,8.8c-0.2,1.3-0.2,2.5-0.2,3.7c0,0.4,0,0.7,0,1.1c-0.1,3,0,6.1,0.1,9.5
			c0.3,8.2,1.2,16.1,2.3,23.7h-10.5c-1,0-1.8,0.8-1.8,1.8v17.2c-1.8-2-4.1-3.3-6.6-3.3c-4.4,0-8,3.6-9.5,8.7H152.4z M222.2,220
			c9.1,0,12.2,1.5,12.2,5.8c0,5.7-5.5,10.3-12.2,10.3c-6.7,0-12.2-4.6-12.2-10.3C210.1,221.5,213.2,220,222.2,220z M209.7,248.9
			c0.7-3.6,1.4-6.9,2.1-9.9c0.1-0.5,0.2-0.9,0.3-1.4c0.1-0.3,0.2-0.6,0.2-0.9c2.7,1.9,6.1,3,9.8,3c3.2,0,6.2-0.9,8.7-2.3
			c0.2,4.5,0.1,9.5-0.3,15.2h-21.6C209.3,251.3,209.5,250.1,209.7,248.9z M208.3,257h22.1c-0.1,1.4-0.2,2.7-0.4,4.1h-22.3
			C207.9,259.7,208.1,258.4,208.3,257z M201.5,261.1h-22.2c-0.1-1.3-0.2-2.7-0.4-4.1h22C201.1,258.3,201.3,259.7,201.5,261.1z
			 M200.3,252.6h-21.7c-0.1-1.3-0.2-2.5-0.2-3.8c-0.1-3.4-0.2-6.4-0.1-9.3c0-0.4,0-0.7,0-1.1c0-0.3,0-0.7,0.1-1
			c2.5,1.5,5.5,2.3,8.8,2.3c3.7,0,7.1-1.1,9.8-3C198.2,241.4,199.3,246.6,200.3,252.6z M174.9,225.8c0-4.3,3.1-5.8,12.2-5.8
			c9.1,0,12.2,1.5,12.2,5.8c0,5.7-5.5,10.3-12.2,10.3C180.4,236.2,174.9,231.5,174.9,225.8z"/>
	</g>
</g>
</svg>
