<?xml version="1.0" encoding="utf-8"?>
<!-- Generator: Adobe Illustrator 24.1.1, SVG Export Plug-In . SVG Version: 6.00 Build 0)  -->
<svg version="1.1" id="Camada_1" xmlns="http://www.w3.org/2000/svg" xmlns:xlink="http://www.w3.org/1999/xlink" x="0px" y="0px"
	 viewBox="0 0 211.7 176.8" style="enable-background:new 0 0 211.7 176.8;" xml:space="preserve">
<path style="fill:#147CC9;" d="M6.2,20.3c1-0.5,2.3-1,3.9-1.5c2.4-0.7,5.3-1.3,8.4-1.5c0.2-3.3,0.7-6.5,1.4-9c0.5-1.8,1-3.2,1.4-4.2
	S22,2.5,22,2.5s0.3,0.6,0.7,1.6s0.9,2.5,1.4,4.2c0.7,2.6,1.2,5.7,1.4,9c3.1,0.3,6,0.8,8.4,1.5c1.6,0.5,3,1.1,3.9,1.5
	c1,0.4,1.5,0.8,1.5,0.8s-0.5,0.3-1.5,0.8c-0.9,0.5-2.3,1-3.9,1.5c-2.4,0.7-5.3,1.3-8.4,1.5c-0.2,3.3-0.7,6.5-1.4,9
	c-0.5,1.8-1,3.2-1.4,4.2S22,39.7,22,39.7s-0.3-0.6-0.7-1.6s-0.9-2.5-1.4-4.2c-0.7-2.5-1.2-5.7-1.4-9c-3.1-0.2-6-0.8-8.4-1.5
	c-1.6-0.5-3-1.1-3.9-1.5s-1.5-0.8-1.5-0.8S5.2,20.8,6.2,20.3z M151,33.4c1.6-0.8,4-1.8,6.8-2.6c4.1-1.3,9.1-2.2,14.5-2.6
	c0.4-5.7,1.3-11.2,2.5-15.6c0.8-3,1.7-5.6,2.5-7.3c0.7-1.8,1.3-2.8,1.3-2.8s0.6,1,1.3,2.8s1.6,4.3,2.4,7.3c1.2,4.4,2.1,9.8,2.5,15.6
	c5.3,0.5,10.4,1.4,14.5,2.7c2.8,0.9,5.2,1.8,6.8,2.6s2.6,1.4,2.6,1.4s-0.9,0.6-2.6,1.4c-1.6,0.8-4,1.7-6.8,2.6
	c-4.1,1.3-9.2,2.2-14.5,2.7c-0.4,5.7-1.3,11.2-2.5,15.6c-0.8,3-1.7,5.6-2.4,7.3c-0.7,1.8-1.3,2.8-1.3,2.8s-0.6-1-1.3-2.8
	s-1.6-4.3-2.4-7.3c-1.2-4.4-2.1-9.8-2.5-15.6c-5.3-0.4-10.4-1.4-14.5-2.7c-2.8-0.9-5.2-1.8-6.8-2.6s-2.6-1.4-2.6-1.4
	S149.4,34.1,151,33.4z M115.2,10.8c1.5,0,3,0.1,4.6,0.1c-29.2,9.4-50.3,36.7-50.3,69c0,40,32.5,72.5,72.5,72.5
	c15.6,0,30.1-5,41.9-13.4c-14.8,22.2-40,36.8-68.7,36.8c-45.6,0-82.5-37-82.5-82.5C32.7,47.8,69.6,10.8,115.2,10.8z"/>
</svg>
