<?xml version="1.0" encoding="utf-8"?>
<!-- Generator: Adobe Illustrator 24.1.1, SVG Export Plug-In . SVG Version: 6.00 Build 0)  -->
<svg version="1.1" id="Camada_1" xmlns="http://www.w3.org/2000/svg" xmlns:xlink="http://www.w3.org/1999/xlink" x="0px" y="0px"
	 viewBox="0 0 400 284" style="enable-background:new 0 0 400 284;" xml:space="preserve">
<g>
	<path style="fill:#414042;" d="M258.7,139.4c2.8-8.5,3.6-17.2,2.7-25.8c10.1-6.2,19.3-12.3,27.2-18.1C320.7,72,317,64.6,315.8,62.1
		c-1.5-3-5.2-4.5-11.1-4.5c0,0,0,0,0,0s0,0,0,0c-0.1,0-0.1,0-0.2,0c-0.7,0-1.5,0-2.3,0.1c-0.1,0-0.3,0-0.4,0
		c-12.3,0.8-32.6,6.7-57.8,16.7c-0.2,0.1-0.3,0.1-0.5,0.2c-0.4,0.2-0.8,0.3-1.3,0.5c-11.1-10.4-25.9-16.3-41.8-16.3
		c-9.6,0-18.9,2.2-27.5,6.5c-14.6,7.4-25.5,20-30.7,35.5c-2.8,8.5-3.6,17.3-2.7,25.9c-1.2,0.7-2.4,1.5-3.7,2.3
		c-1.1,0.7-2.2,1.4-3.3,2.1c-1.8,1.1-3.6,2.3-5.4,3.5c-0.5,0.3-1,0.6-1.5,1c-9.6,6.4-19.7,13.6-27.4,20.5
		c-16.7,14.8-14,20.1-13,22.1c1.5,3.1,5.2,4.5,11.1,4.5c0,0,0,0,0,0c12.3,0,35.1-6.5,62.5-17.5c11.1,10.4,25.9,16.4,41.7,16.4
		c9.6,0,18.9-2.2,27.5-6.6C242.6,167.6,253.5,155,258.7,139.4z M266.6,85.5c0.5,0,0.9,0,1.2,0c0.1,0,0.1,0,0.2,0
		c0.2,0,0.5,0,0.6,0.1c0.1,0,0.2,0,0.2,0c0.1,0,0.1,0,0.2,0c-0.5,1.1-2.7,4.5-11.9,11.3c-0.6-1.5-1.2-2.9-1.9-4.4
		c-0.7-1.4-1.5-2.8-2.3-4.2C260.1,86.3,264.3,85.6,266.6,85.5L266.6,85.5z M147.2,102.5c4.7-14.2,14.7-25.8,28-32.5
		c7.9-4,16.4-6,25.2-6c14.5,0,27.9,5.4,38.1,14.9l1.2,1.2c1.3,1.3,2.5,2.6,3.7,4c0,0,0,0,0,0c1.2,1.4,2.3,2.8,3.3,4.3l0.2,0.3
		c1.3,2,2.6,4.1,3.7,6.3c0.9,1.7,1.5,3.5,2.2,5.2c-0.6,0.4-1.1,0.8-1.7,1.2c-12.2,8.3-28.7,17.9-46.6,26.8
		c-19.1,9.6-37.5,17.4-51.3,22.1c-1-1.6-2-3.2-2.8-4.9c-1.3-2.6-2.3-5.3-3.2-8c-0.4-1.2-0.8-2.4-1.1-3.7c-0.1-0.5-0.2-1-0.3-1.5
		c-0.3-1.3-0.5-2.6-0.7-3.9C143.7,119.7,144.4,110.9,147.2,102.5z M132.2,154.7c-0.2,0-0.3,0-0.4-0.1c0.5-1.1,2.7-4.4,11.8-11.3
		c0.6,1.5,1.2,2.9,1.9,4.4c0.7,1.4,1.5,2.8,2.4,4.2c-6.2,1.9-11.2,2.9-14.5,2.9C132.9,154.8,132.5,154.7,132.2,154.7z M96.2,177.4
		c-4.1,0-6-0.8-6.4-1.6c-1-2,3-10.2,25.6-26.7c1.9-1.4,3.9-2.8,6-4.3c0.1-0.1,0.2-0.1,0.3-0.2c1.9-1.3,3.9-2.6,5.9-4
		c0.4-0.2,0.7-0.5,1.1-0.7c1.7-1.2,3.5-2.3,5.3-3.5c0.7-0.4,1.3-0.8,2-1.3c1.4-0.9,2.9-1.8,4.3-2.7c0.1,0.4,0.2,0.7,0.3,1.1
		c0.3,1.4,0.6,2.7,1,4.1c0.1,0.2,0.1,0.4,0.1,0.6c0,0,0,0,0,0c-2.9,2.1-5.3,4-7.3,5.7c0,0,0,0,0,0c-0.6,0.5-1.2,1.1-1.8,1.6
		c0,0-0.1,0.1-0.1,0.1c-0.5,0.5-1,0.9-1.4,1.4c-0.1,0.1-0.1,0.1-0.2,0.2c-0.4,0.4-0.8,0.8-1.1,1.2c-0.1,0.1-0.2,0.2-0.2,0.3
		c-0.3,0.3-0.6,0.7-0.8,1c-0.1,0.1-0.2,0.2-0.3,0.3c-0.2,0.3-0.4,0.5-0.6,0.8c-0.1,0.1-0.2,0.3-0.3,0.4c-0.1,0.2-0.3,0.4-0.4,0.7
		c-0.1,0.2-0.2,0.3-0.2,0.5c-0.1,0.2-0.2,0.3-0.2,0.5c-0.1,0.2-0.1,0.3-0.2,0.5c0,0.1-0.1,0.3-0.1,0.4c0,0.2-0.1,0.4-0.1,0.5
		c0,0.1,0,0.2-0.1,0.3c0,0.2,0,0.4,0,0.5c0,0.1,0,0.1,0,0.2c0,0.2,0,0.4,0.1,0.6c0,0,0,0.1,0,0.1c0,0.2,0.1,0.4,0.2,0.5
		c0,0,0,0.1,0,0.1c0.1,0.2,0.2,0.4,0.3,0.6c1,2,3.2,2.9,6.6,2.9c11.5,0,41-10.9,73.4-27.2c19.1-9.6,36.6-19.8,49.1-28.6
		c18.7-13.1,19.6-18.1,18-21.2c-1-2-3.2-2.9-6.6-2.9c-0.3,0-0.6,0-0.9,0c-0.2,0-0.5,0-0.8,0c-0.3,0-0.6,0.1-0.9,0.1
		c-0.3,0-0.7,0.1-1,0.1c-0.3,0-0.6,0.1-0.9,0.1c-0.4,0.1-0.9,0.1-1.4,0.2c-0.2,0-0.5,0.1-0.7,0.1c-0.6,0.1-1.2,0.2-1.8,0.4
		c-0.2,0-0.4,0.1-0.6,0.1c-0.7,0.2-1.5,0.3-2.2,0.5c-0.1,0-0.3,0.1-0.4,0.1c-1.8,0.5-3.8,1-5.9,1.7c-0.1-0.1-0.1-0.2-0.2-0.2
		c-1.1-1.5-2.3-3-3.5-4.3c26.2-10.4,47.4-16.3,58.5-16.3c4.1,0,6,0.8,6.4,1.6c1,2-3,10.2-25.6,26.7c-19.4,14.2-46.7,30.4-76.7,45.5
		C160.3,161,115.1,177.4,96.2,177.4z M225.6,170.2c-7.9,4-16.4,6-25.1,6c-13.6,0-26.3-4.9-36.3-13.3c14.8-6.1,30.7-13.4,46.9-21.5
		c16.1-8.1,31.4-16.5,45.2-24.8c0.5,7.1-0.4,14.2-2.7,21.1C249,152,239,163.5,225.6,170.2z"/>
	<path style="fill:#414042;" d="M111.9,168.1c-0.9,0-1.7-0.1-2.5-0.2c-0.8-0.1-1.5-0.5-1.6-0.7c-0.1-0.1-0.1-0.2-0.1-0.4
		c0-0.2,0.1-0.5,0.2-0.9c0.2-0.7,0.7-1.5,1.2-2.2c1-1.5,2.2-3,3.5-4.3c1.3-1.4,2.6-2.7,3.9-4c1.3-1.3,2.6-2.5,3.9-3.6
		c1.3-1.1,2.4-2.2,3.5-3.2c2.2-2,4-3.6,5.3-4.8c1.3-1.2,2-1.8,2-1.8s-0.9,0.5-2.4,1.3c-1.5,0.9-3.6,2.2-6.1,3.8
		c-1.2,0.8-2.6,1.8-3.9,2.8c-1.4,1-2.8,2.1-4.2,3.4c-1.4,1.2-2.9,2.5-4.3,3.9c-1.4,1.4-2.8,2.9-4,4.7c-0.6,0.9-1.1,1.9-1.5,3
		c-0.2,0.6-0.3,1.2-0.3,2c0,0.7,0.3,1.6,0.9,2.2c1.1,1.2,2.4,1.5,3.5,1.7c1.1,0.1,2.1,0.1,3.1,0.1c2-0.1,3.8-0.4,5.5-0.8
		c1.7-0.4,3.3-0.8,4.7-1.2c2.9-0.9,5.2-1.7,6.8-2.4c0.8-0.3,1.4-0.6,1.9-0.8c0.4-0.2,0.6-0.3,0.6-0.3s-3.9,0.7-9.7,1.7
		C118.8,167.6,115.4,168.1,111.9,168.1z"/>
	<path style="fill:#414042;" d="M282.7,73.7c1.9-0.2,3.8-0.3,5.6-0.2c0.9,0,1.8,0.1,2.5,0.4c0.3,0.1,0.6,0.3,0.8,0.4
		c0.2,0.1,0.2,0.2,0.3,0.4c0.1,0.3-0.1,1-0.4,1.7c-0.3,0.7-0.8,1.5-1.3,2.2c-2.1,2.8-4.6,5.2-6.7,7.3c-4.3,4.1-7.1,6.8-7.1,6.8
		s0.2-0.1,0.6-0.4c0.4-0.2,1-0.6,1.7-1c1.5-0.9,3.6-2.3,6-4c1.2-0.9,2.5-1.9,3.8-3c1.3-1.1,2.6-2.4,3.9-3.9c0.6-0.8,1.2-1.6,1.8-2.5
		c0.5-1,1.1-2.1,0.7-3.8c-0.2-0.8-0.7-1.6-1.3-2c-0.6-0.5-1.2-0.8-1.8-1c-1.2-0.4-2.3-0.5-3.3-0.6c-2.1-0.1-4.2,0.1-6.1,0.4
		c-2,0.3-3.9,0.7-5.7,1.1c-1.8,0.4-3.6,0.9-5.2,1.4c-1.6,0.5-3.2,1-4.6,1.5c-2.8,1-5.1,1.9-6.7,2.6c-1.6,0.7-2.5,1.1-2.5,1.1
		s1-0.2,2.7-0.5c1.7-0.4,4.1-0.8,7-1.4c1.4-0.3,3-0.6,4.7-0.9c1.6-0.3,3.4-0.6,5.2-0.9C279,74.2,280.8,73.9,282.7,73.7z"/>
	<path style="fill:#414042;" d="M102.2,69c2.1,0.7,4.8,1.2,7.6,1.4c0.2,3,0.7,5.9,1.3,8.1c0.4,1.6,0.9,2.9,1.3,3.8
		c0.4,0.9,0.7,1.5,0.7,1.5s0.3-0.5,0.7-1.5c0.4-0.9,0.9-2.2,1.3-3.8c0.6-2.3,1.1-5.1,1.3-8.1c2.8-0.2,5.4-0.7,7.6-1.4
		c1.5-0.5,2.7-1,3.6-1.4c0.9-0.4,1.3-0.7,1.3-0.7s-0.5-0.3-1.3-0.7c-0.9-0.4-2.1-0.9-3.6-1.4c-2.1-0.7-4.8-1.2-7.6-1.4
		c-0.2-3-0.7-5.9-1.3-8.1c-0.4-1.6-0.9-2.9-1.3-3.8c-0.4-0.9-0.7-1.5-0.7-1.5s-0.3,0.5-0.7,1.5c-0.4,0.9-0.8,2.2-1.3,3.8
		c-0.6,2.3-1.1,5.1-1.3,8.1c-2.8,0.2-5.4,0.7-7.6,1.4c-1.5,0.5-2.7,1-3.6,1.4c-0.9,0.4-1.3,0.7-1.3,0.7s0.5,0.3,1.3,0.7
		C99.5,68,100.8,68.5,102.2,69z"/>
	<path style="fill:#414042;" d="M304.2,153.6c-2.1-0.7-4.8-1.2-7.6-1.4c-0.2-3-0.7-5.9-1.3-8.2c-0.4-1.6-0.9-2.9-1.3-3.8
		c-0.4-0.9-0.7-1.5-0.7-1.5s-0.3,0.5-0.7,1.5c-0.4,0.9-0.8,2.2-1.3,3.8c-0.6,2.3-1.1,5.2-1.3,8.2c-2.8,0.2-5.4,0.7-7.6,1.4
		c-1.5,0.5-2.7,1-3.6,1.4c-0.9,0.4-1.3,0.7-1.3,0.7s0.5,0.3,1.3,0.7c0.9,0.4,2.1,0.9,3.6,1.4c2.1,0.7,4.8,1.2,7.6,1.4
		c0.2,3,0.7,5.9,1.3,8.2c0.4,1.6,0.9,2.9,1.3,3.8c0.4,0.9,0.7,1.5,0.7,1.5s0.3-0.5,0.7-1.5c0.4-0.9,0.8-2.2,1.3-3.8
		c0.6-2.3,1.1-5.1,1.3-8.1c2.8-0.2,5.4-0.7,7.6-1.4c1.5-0.5,2.7-1,3.6-1.4c0.9-0.4,1.3-0.7,1.3-0.7s-0.5-0.3-1.3-0.7
		C306.9,154.6,305.7,154.1,304.2,153.6z"/>
	<path style="fill:#414042;" d="M260.8,190.8c-1.5-0.5-3.4-0.8-5.4-1c-0.2-2.2-0.5-4.2-0.9-5.9c-0.3-1.1-0.6-2.1-0.9-2.8
		c-0.3-0.7-0.5-1-0.5-1s-0.2,0.4-0.5,1c-0.3,0.7-0.6,1.6-0.9,2.8c-0.4,1.7-0.8,3.7-0.9,5.9c-2,0.2-3.9,0.5-5.4,1
		c-1.1,0.3-1.9,0.7-2.6,1c-0.6,0.3-1,0.5-1,0.5s0.3,0.2,1,0.5c0.6,0.3,1.5,0.7,2.6,1c1.5,0.5,3.4,0.8,5.4,1c0.1,2.2,0.5,4.2,0.9,5.9
		c0.3,1.1,0.6,2.1,0.9,2.8c0.3,0.7,0.5,1,0.5,1s0.2-0.4,0.5-1c0.3-0.7,0.6-1.6,0.9-2.8c0.4-1.6,0.8-3.7,0.9-5.9c2-0.2,3.9-0.5,5.4-1
		c1.1-0.3,1.9-0.7,2.6-1c0.6-0.3,1-0.5,1-0.5s-0.3-0.2-1-0.5C262.7,191.5,261.8,191.1,260.8,190.8z"/>
</g>
<defs>
	<filter id="Adobe_OpacityMaskFilter" filterUnits="userSpaceOnUse" x="84.3" y="204.5" width="232.2" height="154.5">
		<feColorMatrix  type="matrix" values="1 0 0 0 0  0 1 0 0 0  0 0 1 0 0  0 0 0 1 0"/>
	</filter>
</defs>
<mask maskUnits="userSpaceOnUse" x="84.3" y="204.5" width="232.2" height="154.5" id="SVGID_1_">
	<g style="filter:url(#Adobe_OpacityMaskFilter);">
		<linearGradient id="SVGID_2_" gradientUnits="userSpaceOnUse" x1="200.8382" y1="281.6832" x2="200.8382" y2="204.5">
			<stop  offset="0" style="stop-color:#000000"/>
			<stop  offset="8.659510e-02" style="stop-color:#070707"/>
			<stop  offset="0.2172" style="stop-color:#1C1C1C"/>
			<stop  offset="0.3755" style="stop-color:#3E3E3E"/>
			<stop  offset="0.5557" style="stop-color:#6D6D6D"/>
			<stop  offset="0.7542" style="stop-color:#AAAAAA"/>
			<stop  offset="0.9651" style="stop-color:#F2F2F2"/>
			<stop  offset="1" style="stop-color:#FFFFFF"/>
		</linearGradient>
		<rect x="61.5" y="204.5" style="fill:url(#SVGID_2_);" width="278.6" height="77.2"/>
	</g>
</mask>
<g style="opacity:0.4;mask:url(#SVGID_1_);">
	<path style="fill:#414042;" d="M258.7,269.6c2.8,8.5,3.6,17.2,2.7,25.8c10.1,6.2,19.3,12.3,27.2,18.1
		c32.1,23.5,28.4,30.9,27.2,33.3c-1.5,3.1-5.2,4.5-11.1,4.5c0,0,0,0,0,0s0,0,0,0c-0.1,0-0.1,0-0.2,0c-0.7,0-1.5,0-2.3-0.1
		c-0.1,0-0.3,0-0.4,0c-12.3-0.8-32.6-6.7-57.8-16.7c-0.2-0.1-0.3-0.1-0.5-0.2c-0.4-0.2-0.8-0.3-1.3-0.5
		c-11.1,10.4-25.9,16.3-41.8,16.3c-9.6,0-18.9-2.2-27.5-6.5c-14.6-7.4-25.5-20-30.7-35.5c-2.8-8.5-3.6-17.3-2.7-25.9
		c-1.2-0.7-2.4-1.5-3.7-2.3c-1.1-0.7-2.2-1.4-3.3-2.1c-1.8-1.1-3.6-2.3-5.4-3.5c-0.5-0.3-1-0.6-1.5-1c-9.6-6.4-19.7-13.6-27.4-20.5
		c-16.7-14.8-14-20.1-13-22.1c1.5-3,5.2-4.5,11.1-4.5c0,0,0,0,0,0c12.3,0,35.1,6.5,62.5,17.5c11.1-10.4,25.9-16.4,41.7-16.4
		c9.6,0,18.9,2.2,27.5,6.6C242.6,241.4,253.5,254,258.7,269.6z M266.6,323.5c0.5,0,0.9,0,1.2,0c0.1,0,0.1,0,0.2,0
		c0.2,0,0.5,0,0.6-0.1c0.1,0,0.2,0,0.2,0c0.1,0,0.1,0,0.2,0c-0.5-1.1-2.7-4.5-11.9-11.3c-0.6,1.5-1.2,2.9-1.9,4.4
		c-0.7,1.4-1.5,2.8-2.3,4.2C260.1,322.7,264.3,323.4,266.6,323.5L266.6,323.5z M147.2,306.5c4.7,14.2,14.7,25.8,28,32.5
		c7.9,4,16.4,6,25.2,6c14.5,0,27.9-5.4,38.1-14.9l1.2-1.1c1.3-1.3,2.5-2.6,3.7-4c0,0,0,0,0,0c1.2-1.4,2.3-2.8,3.3-4.3l0.2-0.3
		c1.3-2,2.6-4.1,3.7-6.3c0.9-1.7,1.5-3.5,2.2-5.2c-0.6-0.4-1.1-0.8-1.7-1.2c-12.2-8.3-28.7-17.9-46.6-26.8
		c-19.1-9.6-37.5-17.5-51.3-22.1c-1,1.6-2,3.2-2.8,4.9c-1.3,2.6-2.3,5.3-3.2,8c-0.4,1.2-0.8,2.4-1.1,3.7c-0.1,0.5-0.2,1-0.3,1.5
		c-0.3,1.3-0.5,2.6-0.7,3.9C143.7,289.3,144.4,298.1,147.2,306.5z M132.2,254.3c-0.2,0-0.3,0-0.4,0.1c0.5,1.1,2.7,4.5,11.8,11.3
		c0.6-1.5,1.2-2.9,1.9-4.4c0.7-1.4,1.5-2.8,2.4-4.2c-6.2-1.9-11.2-2.9-14.5-2.9C132.9,254.2,132.5,254.3,132.2,254.3z M96.2,231.6
		c-4.1,0-6,0.8-6.4,1.6c-1,2,3,10.2,25.6,26.7c1.9,1.4,3.9,2.8,6,4.3c0.1,0.1,0.2,0.1,0.3,0.2c1.9,1.3,3.9,2.6,5.9,4
		c0.4,0.3,0.7,0.5,1.1,0.7c1.7,1.2,3.5,2.3,5.3,3.5c0.7,0.4,1.3,0.8,2,1.3c1.4,0.9,2.9,1.8,4.3,2.7c0.1-0.4,0.2-0.7,0.3-1.1
		c0.3-1.4,0.6-2.7,1-4.1c0.1-0.2,0.1-0.4,0.1-0.5c0,0,0,0,0,0c-2.9-2.1-5.3-4-7.3-5.7c0,0,0,0,0,0c-0.6-0.5-1.2-1.1-1.8-1.6
		c0,0-0.1-0.1-0.1-0.1c-0.5-0.5-1-0.9-1.4-1.4c-0.1-0.1-0.1-0.1-0.2-0.2c-0.4-0.4-0.8-0.8-1.1-1.2c-0.1-0.1-0.2-0.2-0.2-0.3
		c-0.3-0.3-0.6-0.7-0.8-1c-0.1-0.1-0.2-0.2-0.3-0.3c-0.2-0.3-0.4-0.6-0.6-0.8c-0.1-0.1-0.2-0.3-0.3-0.4c-0.1-0.2-0.3-0.4-0.4-0.7
		c-0.1-0.2-0.2-0.3-0.2-0.5c-0.1-0.2-0.2-0.3-0.2-0.5c-0.1-0.2-0.1-0.3-0.2-0.5c0-0.1-0.1-0.3-0.1-0.4c0-0.2-0.1-0.4-0.1-0.5
		c0-0.1,0-0.2-0.1-0.3c0-0.2,0-0.4,0-0.5c0-0.1,0-0.1,0-0.2c0-0.2,0-0.4,0.1-0.6c0,0,0-0.1,0-0.1c0-0.2,0.1-0.4,0.2-0.5
		c0,0,0-0.1,0-0.1c0.1-0.2,0.2-0.4,0.3-0.6c1-2,3.2-2.9,6.6-2.9c11.5,0,41,10.9,73.4,27.2c19.1,9.6,36.6,19.8,49.1,28.6
		c18.7,13.1,19.6,18.1,18,21.2c-1,2-3.2,2.9-6.6,2.9c-0.3,0-0.6,0-0.9,0c-0.2,0-0.5,0-0.8,0c-0.3,0-0.6-0.1-0.9-0.1
		c-0.3,0-0.7-0.1-1-0.1c-0.3,0-0.6-0.1-0.9-0.1c-0.4-0.1-0.9-0.1-1.4-0.2c-0.2,0-0.5-0.1-0.7-0.1c-0.6-0.1-1.2-0.2-1.8-0.4
		c-0.2,0-0.4-0.1-0.6-0.1c-0.7-0.2-1.5-0.3-2.2-0.5c-0.1,0-0.3-0.1-0.4-0.1c-1.8-0.5-3.8-1-5.9-1.7c-0.1,0.1-0.1,0.2-0.2,0.3
		c-1.1,1.5-2.3,3-3.5,4.3c26.2,10.4,47.4,16.3,58.5,16.3c4.1,0,6-0.8,6.4-1.6c1-2-3-10.2-25.6-26.7c-19.4-14.2-46.7-30.4-76.7-45.5
		C160.3,248,115.1,231.6,96.2,231.6z M225.6,238.8c-7.9-4-16.4-6-25.1-6c-13.6,0-26.3,4.9-36.3,13.3c14.8,6.1,30.7,13.4,46.9,21.5
		c16.1,8.1,31.4,16.5,45.2,24.8c0.5-7.1-0.4-14.2-2.7-21.1C249,257,239,245.5,225.6,238.8z"/>
	<path style="fill:#414042;" d="M111.9,240.9c-0.9,0-1.7,0.1-2.5,0.2c-0.8,0.1-1.5,0.5-1.6,0.7c-0.1,0.1-0.1,0.2-0.1,0.4
		c0,0.2,0.1,0.5,0.2,0.9c0.2,0.7,0.7,1.5,1.2,2.2c1,1.5,2.2,3,3.5,4.3c1.3,1.4,2.6,2.7,3.9,4c1.3,1.3,2.6,2.5,3.9,3.6
		c1.3,1.1,2.4,2.2,3.5,3.2c2.2,2,4,3.6,5.3,4.8c1.3,1.2,2,1.8,2,1.8s-0.9-0.5-2.4-1.3c-1.5-0.9-3.6-2.2-6.1-3.8
		c-1.2-0.8-2.6-1.8-3.9-2.8c-1.4-1-2.8-2.1-4.2-3.4c-1.4-1.2-2.9-2.5-4.3-3.9c-1.4-1.4-2.8-2.9-4-4.7c-0.6-0.9-1.1-1.9-1.5-3
		c-0.2-0.6-0.3-1.2-0.3-2c0-0.7,0.3-1.6,0.9-2.2c1.1-1.2,2.4-1.5,3.5-1.7c1.1-0.1,2.1-0.1,3.1-0.1c2,0.1,3.8,0.4,5.5,0.8
		c1.7,0.4,3.3,0.8,4.7,1.2c2.9,0.9,5.2,1.7,6.8,2.4c0.8,0.3,1.4,0.6,1.9,0.8c0.4,0.2,0.6,0.3,0.6,0.3s-3.9-0.7-9.7-1.7
		C118.8,241.4,115.4,240.9,111.9,240.9z"/>
	<path style="fill:#414042;" d="M282.7,335.3c1.9,0.2,3.8,0.3,5.6,0.2c0.9,0,1.8-0.1,2.5-0.4c0.3-0.1,0.6-0.3,0.8-0.4
		c0.2-0.1,0.2-0.2,0.3-0.4c0.1-0.3-0.1-1-0.4-1.7c-0.3-0.7-0.8-1.5-1.3-2.2c-2.1-2.8-4.6-5.2-6.7-7.3c-4.3-4.1-7.1-6.8-7.1-6.8
		s0.2,0.1,0.6,0.4c0.4,0.2,1,0.6,1.7,1c1.5,0.9,3.6,2.3,6,4c1.2,0.9,2.5,1.9,3.8,3c1.3,1.1,2.6,2.4,3.9,3.9c0.6,0.8,1.2,1.6,1.8,2.5
		c0.5,1,1.1,2.1,0.7,3.8c-0.2,0.8-0.7,1.6-1.3,2c-0.6,0.5-1.2,0.8-1.8,1c-1.2,0.4-2.3,0.5-3.3,0.6c-2.1,0.1-4.2-0.1-6.1-0.4
		c-2-0.3-3.9-0.7-5.7-1.1c-1.8-0.4-3.6-0.9-5.2-1.4c-1.6-0.5-3.2-1-4.6-1.5c-2.8-1-5.1-1.9-6.7-2.6c-1.6-0.7-2.5-1.1-2.5-1.1
		s1,0.2,2.7,0.5c1.7,0.4,4.1,0.8,7,1.4c1.4,0.3,3,0.6,4.7,0.9c1.6,0.3,3.4,0.6,5.2,0.9C279,334.8,280.8,335.1,282.7,335.3z"/>
	<path style="fill:#414042;" d="M102.2,340c2.1-0.7,4.8-1.2,7.6-1.4c0.2-3,0.7-5.9,1.3-8.1c0.4-1.6,0.9-2.9,1.3-3.8
		c0.4-0.9,0.7-1.5,0.7-1.5s0.3,0.5,0.7,1.5c0.4,0.9,0.9,2.2,1.3,3.8c0.6,2.3,1.1,5.1,1.3,8.1c2.8,0.2,5.4,0.7,7.6,1.4
		c1.5,0.5,2.7,1,3.6,1.4c0.9,0.4,1.3,0.7,1.3,0.7s-0.5,0.3-1.3,0.7c-0.9,0.4-2.1,0.9-3.6,1.4c-2.1,0.7-4.8,1.2-7.6,1.4
		c-0.2,3-0.7,5.9-1.3,8.1c-0.4,1.6-0.9,2.9-1.3,3.8c-0.4,0.9-0.7,1.5-0.7,1.5s-0.3-0.5-0.7-1.5c-0.4-0.9-0.8-2.2-1.3-3.8
		c-0.6-2.3-1.1-5.1-1.3-8.1c-2.8-0.2-5.4-0.7-7.6-1.4c-1.5-0.5-2.7-1-3.6-1.4c-0.9-0.4-1.3-0.7-1.3-0.7s0.5-0.3,1.3-0.7
		C99.5,341,100.8,340.5,102.2,340z"/>
	<path style="fill:#414042;" d="M304.2,255.4c-2.1,0.7-4.8,1.2-7.6,1.4c-0.2,3-0.7,5.9-1.3,8.1c-0.4,1.6-0.9,2.9-1.3,3.8
		c-0.4,0.9-0.7,1.5-0.7,1.5s-0.3-0.5-0.7-1.5c-0.4-0.9-0.8-2.2-1.3-3.8c-0.6-2.3-1.1-5.1-1.3-8.2c-2.8-0.2-5.4-0.7-7.6-1.4
		c-1.5-0.5-2.7-1-3.6-1.4c-0.9-0.4-1.3-0.7-1.3-0.7s0.5-0.3,1.3-0.7c0.9-0.4,2.1-0.9,3.6-1.4c2.1-0.7,4.8-1.2,7.6-1.4
		c0.2-3,0.7-5.9,1.3-8.1c0.4-1.6,0.9-2.9,1.3-3.8c0.4-0.9,0.7-1.5,0.7-1.5s0.3,0.5,0.7,1.5c0.4,0.9,0.8,2.2,1.3,3.8
		c0.6,2.3,1.1,5.1,1.3,8.1c2.8,0.2,5.4,0.7,7.6,1.4c1.5,0.5,2.7,1,3.6,1.4c0.9,0.4,1.3,0.7,1.3,0.7s-0.5,0.3-1.3,0.7
		C306.9,254.4,305.7,254.9,304.2,255.4z"/>
	<path style="fill:#414042;" d="M260.8,218.2c-1.5,0.5-3.4,0.8-5.4,1c-0.2,2.2-0.5,4.2-0.9,5.9c-0.3,1.1-0.6,2.1-0.9,2.8
		c-0.3,0.7-0.5,1-0.5,1s-0.2-0.4-0.5-1c-0.3-0.7-0.6-1.6-0.9-2.8c-0.4-1.7-0.8-3.7-0.9-5.9c-2-0.2-3.9-0.5-5.4-1
		c-1.1-0.3-1.9-0.7-2.6-1c-0.6-0.3-1-0.5-1-0.5s0.3-0.2,1-0.5c0.6-0.3,1.5-0.7,2.6-1c1.5-0.5,3.4-0.8,5.4-1c0.1-2.2,0.5-4.2,0.9-5.9
		c0.3-1.1,0.6-2.1,0.9-2.8c0.3-0.7,0.5-1,0.5-1s0.2,0.4,0.5,1c0.3,0.7,0.6,1.6,0.9,2.8c0.4,1.7,0.8,3.7,0.9,5.9c2,0.2,3.9,0.5,5.4,1
		c1.1,0.3,1.9,0.7,2.6,1c0.6,0.3,1,0.5,1,0.5s-0.3,0.2-1,0.5C262.7,217.5,261.8,217.9,260.8,218.2z"/>
</g>
</svg>
