<?xml version="1.0" encoding="utf-8"?>
<!-- Generator: Adobe Illustrator 24.1.1, SVG Export Plug-In . SVG Version: 6.00 Build 0)  -->
<svg version="1.1" id="Camada_1" xmlns="http://www.w3.org/2000/svg" xmlns:xlink="http://www.w3.org/1999/xlink" x="0px" y="0px"
	 viewBox="0 0 400 284" style="enable-background:new 0 0 400 284;" xml:space="preserve">
<g>
	<path style="fill:#414042;" d="M269.1,179.7L238,136.8V98c0-8.6-5.9-15.9-13.8-18V66.2c0-26-9.9-54.9-24.1-54.9
		c-14.2,0-24.1,29-24.1,54.9V80c-7.9,2.2-13.8,9.4-13.8,18v38.9l-31.1,42.9c-2.6,3.6-3.4,7.2-2.1,9.8c0.6,1.2,2.2,3.2,6.1,3.2h27.1
		v6.6h10.4l-4.7,6c-0.5,0.6-0.7,1.2-0.4,1.7c0.1,0.2,0.4,0.6,1.2,0.6H193c0.8,0,1.1-0.4,1.2-0.6c0.2-0.5,0.1-1.1-0.4-1.7l-4.7-6
		h10.4V98c0-10.3-8.4-18.7-18.7-18.7c-0.2,0-0.4,0-0.6,0V66.2c0-12.9,2.4-25.5,6-34.9c4.5,0.4,9.1,0.6,13.8,0.6
		c4.7,0,9.3-0.2,13.8-0.6c3.6,9.4,6,22,6,34.9v13.1c-0.2,0-0.4,0-0.6,0c-10.3,0-18.7,8.4-18.7,18.7v101.3H211l-4.7,6
		c-0.5,0.6-0.7,1.2-0.4,1.7c0.1,0.2,0.4,0.6,1.2,0.6h24.5c0.8,0,1.1-0.4,1.2-0.6c0.2-0.5,0.1-1.1-0.4-1.7l-4.7-6H238v-6.6h27.1
		c3.9,0,5.5-2,6.1-3.2C272.5,186.9,271.7,183.4,269.1,179.7z M195.1,132.6c-9.4-2.6-19.3-2.6-28.7,0v-6.2c9.4-2.9,19.4-2.9,28.7,0
		V132.6z M134.9,188.4c-0.7,0-1.9-0.1-2.2-0.8c-0.4-0.8-0.1-2.8,1.7-5.3l27.6-38.1v44.1H134.9z M166.4,194.9v-56.3
		c9.4-2.9,19.4-2.9,28.7,0v56.3H166.4z M195.1,98v22.4c-9.4-2.6-19.3-2.6-28.7,0V98c0-7.9,6.4-14.4,14.4-14.4
		C188.7,83.6,195.1,90.1,195.1,98z M204.9,126.4c9.4-2.9,19.4-2.9,28.7,0v6.2c-9.4-2.6-19.3-2.6-28.7,0V126.4z M219.3,83.6
		c7.9,0,14.4,6.4,14.4,14.4v22.4c-9.4-2.6-19.3-2.6-28.7,0V98C204.9,90.1,211.3,83.6,219.3,83.6z M204.9,194.9v-56.3
		c9.4-2.9,19.4-2.9,28.7,0v56.3H204.9z M267.3,187.5c-0.4,0.7-1.6,0.8-2.2,0.8H238v-44.1l27.6,38.1
		C267.4,184.7,267.7,186.7,267.3,187.5z"/>
	<path style="fill:#414042;" d="M214.2,44.3c-8.6-5.6-19.7-5.6-28.3,0c0,3.7,0,7.4,0,11.1c8.6-5.6,19.7-5.6,28.3,0
		C214.2,51.7,214.2,48,214.2,44.3z"/>
</g>
<defs>
	<filter id="Adobe_OpacityMaskFilter" filterUnits="userSpaceOnUse" x="128.2" y="207.6" width="143.6" height="196.3">
		<feColorMatrix  type="matrix" values="1 0 0 0 0  0 1 0 0 0  0 0 1 0 0  0 0 0 1 0"/>
	</filter>
</defs>
<mask maskUnits="userSpaceOnUse" x="128.2" y="207.6" width="143.6" height="196.3" id="SVGID_1_">
	<g style="filter:url(#Adobe_OpacityMaskFilter);">
		<linearGradient id="SVGID_2_" gradientUnits="userSpaceOnUse" x1="209.233" y1="280.0992" x2="209.233" y2="207.601">
			<stop  offset="0" style="stop-color:#000000"/>
			<stop  offset="8.659510e-02" style="stop-color:#070707"/>
			<stop  offset="0.2172" style="stop-color:#1C1C1C"/>
			<stop  offset="0.3755" style="stop-color:#3E3E3E"/>
			<stop  offset="0.5557" style="stop-color:#6D6D6D"/>
			<stop  offset="0.7542" style="stop-color:#AAAAAA"/>
			<stop  offset="0.9651" style="stop-color:#F2F2F2"/>
			<stop  offset="1" style="stop-color:#FFFFFF"/>
		</linearGradient>
		<rect x="113.2" y="207.6" style="fill:url(#SVGID_2_);" width="192" height="72.5"/>
	</g>
</mask>
<g style="opacity:0.4;mask:url(#SVGID_1_);">
	<path style="fill:#414042;" d="M269.1,235.5L238,278.4v38.9c0,8.6-5.9,15.9-13.8,18V349c0,26-9.9,54.9-24.1,54.9
		c-14.2,0-24.1-29-24.1-54.9v-13.7c-7.9-2.2-13.8-9.4-13.8-18v-38.9l-31.1-42.9c-2.6-3.6-3.4-7.2-2.1-9.8c0.6-1.2,2.2-3.2,6.1-3.2
		h27.1v-6.6h10.4l-4.7-6c-0.5-0.6-0.7-1.2-0.4-1.7c0.1-0.2,0.4-0.6,1.2-0.6H193c0.8,0,1.1,0.4,1.2,0.6c0.2,0.5,0.1,1.1-0.4,1.7
		l-4.7,6h10.4v101.3c0,10.3-8.4,18.7-18.7,18.7c-0.2,0-0.4,0-0.6,0V349c0,12.9,2.4,25.5,6,34.9c4.5-0.4,9.1-0.6,13.8-0.6
		c4.7,0,9.3,0.2,13.8,0.6c3.6-9.4,6-22,6-34.9v-13.1c-0.2,0-0.4,0-0.6,0c-10.3,0-18.7-8.4-18.7-18.7V215.9H211l-4.7-6
		c-0.5-0.6-0.7-1.2-0.4-1.7c0.1-0.2,0.4-0.6,1.2-0.6h24.5c0.8,0,1.1,0.4,1.2,0.6c0.2,0.5,0.1,1.1-0.4,1.7l-4.7,6H238v6.6h27.1
		c3.9,0,5.5,2,6.1,3.2C272.5,228.3,271.7,231.8,269.1,235.5z M195.1,282.6c-9.4,2.6-19.3,2.6-28.7,0v6.2c9.4,2.9,19.4,2.9,28.7,0
		V282.6z M134.9,226.8c-0.7,0-1.9,0.1-2.2,0.8c-0.4,0.8-0.1,2.8,1.7,5.3l27.6,38.1v-44.1H134.9z M166.4,220.3v56.3
		c9.4,2.9,19.4,2.9,28.7,0v-56.3H166.4z M195.1,317.2v-22.4c-9.4,2.6-19.3,2.6-28.7,0v22.4c0,7.9,6.4,14.4,14.4,14.4
		C188.7,331.6,195.1,325.1,195.1,317.2z M204.9,288.8c9.4,2.9,19.4,2.9,28.7,0v-6.2c-9.4,2.6-19.3,2.6-28.7,0V288.8z M219.3,331.6
		c7.9,0,14.4-6.4,14.4-14.4v-22.4c-9.4,2.6-19.3,2.6-28.7,0v22.4C204.9,325.1,211.3,331.6,219.3,331.6z M204.9,220.3v56.3
		c9.4,2.9,19.4,2.9,28.7,0v-56.3H204.9z M267.3,227.7c-0.4-0.7-1.6-0.8-2.2-0.8H238V271l27.6-38.1
		C267.4,230.5,267.7,228.5,267.3,227.7z"/>
	<path style="fill:#414042;" d="M214.2,370.9c-8.6,5.6-19.7,5.6-28.3,0c0-3.7,0-7.4,0-11.1c8.6,5.6,19.7,5.6,28.3,0
		C214.2,363.5,214.2,367.2,214.2,370.9z"/>
</g>
</svg>
