<?xml version="1.0" encoding="utf-8"?>
<!-- Generator: Adobe Illustrator 24.1.1, SVG Export Plug-In . SVG Version: 6.00 Build 0)  -->
<svg version="1.1" id="Camada_1" xmlns="http://www.w3.org/2000/svg" xmlns:xlink="http://www.w3.org/1999/xlink" x="0px" y="0px"
	 viewBox="0 0 400 268" style="enable-background:new 0 0 400 268;" xml:space="preserve">
<path style="fill:#147CC9;" d="M337.8,213c-1.2,0.6-3,1.3-5.2,2c-3.1,1-6.9,1.7-11,2c-0.3,4.3-1,8.5-1.9,11.8
	c-0.6,2.3-1.3,4.2-1.8,5.5c-0.6,1.4-1,2.1-1,2.1s-0.4-0.8-1-2.1c-0.6-1.3-1.2-3.2-1.8-5.5c-0.9-3.3-1.6-7.5-1.9-11.8
	c-4-0.3-7.9-1-11-2c-2.1-0.7-3.9-1.4-5.1-2c-1.3-0.6-2-1.1-2-1.1s0.7-0.5,2-1c1.2-0.6,3-1.3,5.1-2c3.1-1,6.9-1.7,10.9-2
	c0.3-4.3,1-8.5,1.9-11.8c0.6-2.3,1.3-4.2,1.8-5.6c0.5-1.3,1-2.1,1-2.1s0.4,0.8,1,2.1c0.6,1.3,1.2,3.2,1.8,5.6
	c0.9,3.3,1.6,7.4,1.9,11.8c4,0.3,7.8,1.1,10.9,2c2.1,0.7,3.9,1.4,5.2,2c1.2,0.6,2,1,2,1S339,212.4,337.8,213z M284.6,56.1
	c1.9-0.9,4.7-2.1,8-3.1c4.8-1.5,10.8-2.6,17-3.1c0.5-6.7,1.5-13.2,2.9-18.3c1-3.6,2-6.6,2.9-8.6c0.8-2.1,1.5-3.3,1.5-3.3
	s0.7,1.2,1.5,3.3c0.9,2.1,1.9,5,2.9,8.6c1.4,5.2,2.4,11.6,2.9,18.3c6.3,0.5,12.2,1.6,17,3.1c3.3,1.1,6.1,2.2,8,3.1
	c2,0.9,3.1,1.6,3.1,1.6s-1.1,0.7-3.1,1.6c-1.9,0.9-4.7,2-8,3.1c-4.8,1.5-10.8,2.6-17,3.1c-0.5,6.8-1.5,13.2-2.9,18.4
	c-1,3.5-2,6.5-2.9,8.6c-0.8,2.1-1.5,3.3-1.5,3.3s-0.7-1.2-1.5-3.3c-0.9-2.1-1.9-5.1-2.9-8.6c-1.4-5.2-2.4-11.6-2.9-18.4
	c-6.3-0.5-12.2-1.6-17-3.1c-3.3-1-6.1-2.2-8-3.1c-1.9-0.9-3-1.6-3-1.6S282.7,57,284.6,56.1z M197.4,129.5c1-0.5,2.3-1,3.9-1.5
	c2.4-0.7,5.3-1.3,8.4-1.5c0.2-3.3,0.7-6.5,1.4-9c0.5-1.8,1-3.2,1.4-4.2c0.4-1,0.7-1.6,0.7-1.6s0.3,0.6,0.7,1.6
	c0.4,1,0.9,2.5,1.4,4.2c0.7,2.6,1.2,5.7,1.4,9c3.1,0.3,6,0.8,8.4,1.5c1.6,0.5,3,1.1,3.9,1.5c1,0.4,1.5,0.8,1.5,0.8s-0.5,0.3-1.5,0.8
	c-0.9,0.5-2.3,1-3.9,1.5c-2.4,0.7-5.3,1.3-8.4,1.5c-0.2,3.3-0.7,6.5-1.4,9c-0.5,1.8-1,3.2-1.4,4.2c-0.4,1-0.7,1.6-0.7,1.6
	s-0.3-0.6-0.7-1.6c-0.4-1-0.9-2.5-1.4-4.2c-0.7-2.5-1.2-5.7-1.4-9c-3.1-0.2-6-0.8-8.4-1.5c-1.6-0.5-3-1.1-3.9-1.5
	c-0.9-0.4-1.5-0.8-1.5-0.8S196.4,130,197.4,129.5z M145.5,37.1c1.6-0.8,4-1.8,6.8-2.6c4.1-1.3,9.1-2.2,14.5-2.6
	c0.4-5.7,1.3-11.2,2.5-15.6c0.8-3,1.7-5.6,2.5-7.3c0.7-1.8,1.3-2.8,1.3-2.8s0.6,1,1.3,2.8c0.7,1.8,1.6,4.3,2.4,7.3
	c1.2,4.4,2.1,9.8,2.5,15.6c5.3,0.5,10.4,1.4,14.5,2.7c2.8,0.9,5.2,1.8,6.8,2.6c1.6,0.8,2.6,1.4,2.6,1.4s-0.9,0.6-2.6,1.4
	c-1.6,0.8-4,1.7-6.8,2.6c-4.1,1.3-9.2,2.2-14.5,2.7c-0.4,5.7-1.3,11.2-2.5,15.6c-0.8,3-1.7,5.6-2.4,7.3c-0.7,1.8-1.3,2.8-1.3,2.8
	s-0.6-1-1.3-2.8c-0.7-1.8-1.6-4.3-2.4-7.3c-1.2-4.4-2.1-9.8-2.5-15.6c-5.3-0.4-10.4-1.4-14.5-2.7c-2.8-0.9-5.2-1.8-6.8-2.6
	c-1.6-0.8-2.6-1.4-2.6-1.4S143.9,37.8,145.5,37.1z M149.4,97.3c1.5,0,3,0.1,4.6,0.1c-29.2,9.4-50.3,36.7-50.3,69
	c0,40,32.5,72.5,72.5,72.5c15.6,0,30.1-5,41.9-13.4c-14.8,22.2-40,36.8-68.7,36.8c-45.6,0-82.5-37-82.5-82.5
	C66.9,134.3,103.8,97.3,149.4,97.3z M40.2,69.3c0.8-0.4,1.9-0.8,3.2-1.2c1.9-0.6,4.2-1,6.7-1.2c0.2-2.7,0.6-5.2,1.1-7.2
	c0.4-1.4,0.8-2.6,1.1-3.4c0.3-0.8,0.6-1.3,0.6-1.3s0.3,0.5,0.6,1.3c0.3,0.8,0.8,2,1.1,3.4c0.6,2,1,4.6,1.1,7.2
	c2.5,0.2,4.8,0.6,6.7,1.2c1.3,0.4,2.4,0.9,3.2,1.2c0.8,0.4,1.2,0.6,1.2,0.6s-0.4,0.3-1.2,0.6c-0.8,0.4-1.9,0.8-3.2,1.2
	c-1.9,0.6-4.2,1-6.7,1.2c-0.2,2.7-0.6,5.2-1.2,7.2c-0.4,1.4-0.8,2.6-1.1,3.4c-0.3,0.8-0.6,1.3-0.6,1.3s-0.2-0.5-0.6-1.3
	c-0.3-0.8-0.7-2-1.1-3.4c-0.6-2-1-4.6-1.1-7.2c-2.5-0.2-4.8-0.6-6.7-1.2c-1.3-0.4-2.4-0.9-3.2-1.2c-0.8-0.3-1.2-0.6-1.2-0.6
	S39.4,69.6,40.2,69.3z"/>
</svg>
