<?xml version="1.0" encoding="utf-8"?>
<!-- Generator: Adobe Illustrator 24.1.1, SVG Export Plug-In . SVG Version: 6.00 Build 0)  -->
<svg version="1.1" id="Camada_1" xmlns="http://www.w3.org/2000/svg" xmlns:xlink="http://www.w3.org/1999/xlink" x="0px" y="0px"
	 viewBox="0 0 400 284" style="enable-background:new 0 0 400 284;" xml:space="preserve">
<g>
	<path style="fill:#414042;" d="M278,44.6c-2.9-6.6-8.5-11.3-14.7-12.5c-3.4-2.9-6.9-4.6-10.2-4.6c-1.3,0-2.5,0.2-3.6,0.7l-9.3,4.1
		c-3.2,1.4-5.2,4.5-6.1,8.7l-57.5,25.1c-2.3-1.4-4.6-2.2-6.9-2.2c-1.3,0-2.5,0.2-3.6,0.7c0,0,0,0,0,0l-9.3,4.1
		c-4.4,1.9-6.6,7.2-6.5,14l-1.2,0.5c-1.7-1-3.5-1.6-5.1-1.6c-1,0-2,0.2-2.9,0.6l-7,3.1c-3,1.3-4.9,4.6-5.2,9.3c0,0.4,0,0.9,0,1.3
		l-3,1.3c-1.3-0.7-2.7-1.1-4-1.1c-0.8,0-1.6,0.2-2.4,0.5l-5.3,2.3c-2.5,1.1-3.9,3.7-4.2,7.4c-0.2,3.3,0.6,7.1,2.2,10.7
		c3,6.8,7.9,11.3,12.3,11.3c0.8,0,1.6-0.2,2.4-0.5l5.3-2.3c1.9-0.8,3.2-2.6,3.8-5.1l2.9-1.3c2.8,2.5,5.7,4,8.4,4c1,0,2-0.2,2.9-0.6
		l7-3.1c2.4-1.1,4-3.5,4.7-6.6l1.2-0.5c3.6,3.4,7.5,5.4,11.1,5.4c1.3,0,2.5-0.2,3.6-0.7l9.3-4.1c3.1-1.4,5.2-4.4,6.1-8.7l0.9-0.4
		v18.2c-7.8,0.2-17.4,1.4-17.4,5.4v5.6c0,1.9,2.1,3.1,5.1,3.9l-20,45.4c-4.7,0.3-8.1,2.6-8.1,5.6c0,3.3,3.9,5.7,9.1,5.7
		c5.2,0,9.1-2.5,9.1-5.7c0-1.9-1.4-3.6-3.6-4.6l7.7-17.4l19.1,5.6v22.2c-3.5,0.8-5.9,2.8-5.9,5.4c0,3.3,3.9,5.7,9.1,5.7
		c5.2,0,9.1-2.5,9.1-5.7c0-2.5-2.4-4.6-5.9-5.4v-22.2l20.1-5.6l7.7,17.4c-2.2,1-3.6,2.7-3.6,4.6c0,3.3,3.9,5.7,9.1,5.7
		s9.1-2.5,9.1-5.7c0-3-3.4-5.4-8.1-5.6l-20.1-45.7c2.5-0.8,4.2-2,4.2-3.6v-5.6c0-4-9.6-5.1-17.4-5.4v-20.1c0-0.5-0.1-1-0.3-1.5
		l48.9-21.4c2.3,1.4,4.7,2.2,6.9,2.2c1.3,0,2.5-0.2,3.6-0.7l9.3-4.1c4.1-1.8,6.3-6.6,6.5-12.7C280.4,58.5,280.9,51.2,278,44.6z
		 M177.6,162.5l10.7-24.4c2.3,0.2,4.6,0.3,6.7,0.4v29.1L177.6,162.5z M219.9,162.5l-18.5,5.2v-29.1c2.5-0.1,5.2-0.2,7.7-0.5
		L219.9,162.5z M274.4,46.1c3.4,7.8,1.3,16.5-4.9,19.9c0,0-0.1,0-0.1,0.1c-0.1,0.1-0.2,0.1-0.3,0.2c0,0-0.1,0-0.1,0.1
		c0,0-0.1,0-0.1,0l0,0c0,0,0,0,0,0c-3,1-9-3.4-12.8-12.2c-3.7-8.5-3.1-16-0.2-17.7c0,0,0,0,0,0l0,0c0,0,0.1,0,0.1,0c0,0,0.1,0,0.1,0
		c0.1-0.1,0.3-0.1,0.4-0.1c0,0,0.1,0,0.1,0c1.2-0.4,2.4-0.6,3.6-0.6C265.9,35.6,271.6,39.8,274.4,46.1z M256.4,32.2
		c-0.4,0.1-0.8,0.2-1.1,0.3c-0.3,0.1-0.6,0.2-0.9,0.3c-0.1,0-0.1,0.1-0.2,0.1l0,0c-0.1,0-0.2,0.1-0.2,0.1c-0.2,0.1-0.3,0.2-0.5,0.3
		c-4.9,3.1-5.4,12.7-1.2,22.5c3.8,8.6,10.2,14.7,15.5,14.7c0.6,0,1.2-0.1,1.8-0.2c0.2,0,0.4-0.1,0.5-0.2c0.1,0,0.1-0.1,0.2-0.1
		c0.1,0,0.1,0,0.2-0.1c0.3-0.1,0.5-0.3,0.8-0.4c0.3-0.2,0.7-0.4,1-0.6c-0.7,2.1-1.9,3.5-3.3,4.2c-0.6,0.3-1.3,0.4-2,0.4
		c-5.4,0-12.6-7.2-16.8-16.7c-5.4-12.3-4-22.8,0.8-24.9c0.6-0.3,1.3-0.4,2-0.4C254.1,31.4,255.3,31.7,256.4,32.2z M172,68.2
		c-2.8,1.5-4.6,4.7-4.9,9.3c-0.3,4.3,0.7,9.4,2.9,14.3c3.9,8.8,10.5,15,16.2,15h0c0.9,0,1.7-0.2,2.5-0.4c-0.7,1.4-1.6,2.5-2.8,3
		c-0.6,0.3-1.3,0.4-2,0.4c-5.4,0-12.6-7.2-16.8-16.7c-5.4-12.3-3.9-22.8,0.8-24.9c0.6-0.3,1.3-0.4,2-0.4
		C170.5,67.8,171.2,68,172,68.2z M154.1,98.8c1.8,4,4,7.6,6.4,10.6l-2.1,0.9c-2.3,1-7-2.5-9.9-9.1c-2.8-6.4-2.3-12.4,0-13.4l2.1-0.9
		C151.2,90.6,152.3,94.7,154.1,98.8z M144.9,102.8c3,6.9,8.1,11.6,12.6,11.6c-0.4,0.7-1,1.3-1.6,1.5c-0.4,0.2-0.8,0.3-1.3,0.3
		c-3.3,0-8.7-4.3-12.2-12.3c-1.8-4.2-2.7-8.5-2.5-12.1c0.2-3.1,1.2-5.3,2.8-6c0.4-0.2,0.8-0.3,1.3-0.3c0.3,0,0.6,0.1,0.9,0.1
		c-1.3,1.4-2.1,3.5-2.3,6.1C142.5,95.1,143.2,99,144.9,102.8z M131.7,108.5c1.3,2.9,2.8,5.4,4.5,7.6l-2.9,1.3
		c-0.1,0.1-0.3,0.1-0.4,0.1c-1.7,0-4.5-2.5-6.3-6.7c-1-2.3-1.5-4.7-1.4-6.7c0.1-1.4,0.5-2.5,1.2-2.8l2.9-1.3
		C129.7,102.8,130.5,105.7,131.7,108.5z M123,112.4c2.1,4.7,5.4,8.1,8.6,8.9c-0.2,0.3-0.5,0.6-0.8,0.7c-2.2,1-6.8-2.5-9.5-8.8
		c-1.3-3.1-2-6.3-1.8-8.9c0.1-2.1,0.8-3.6,1.8-4.1c0.2-0.1,0.5-0.2,0.8-0.2c0.1,0,0.2,0.1,0.3,0.1c-0.6,1-0.9,2.3-1,3.8
		C121.1,106.5,121.7,109.5,123,112.4z M197.5,98.2c-0.6,0.1-1.1,0.4-1.6,0.7l-8.4,3.7c-0.4,0.2-0.9,0.3-1.4,0.3h0
		c-3.4,0-9-4.4-12.6-12.7c-1.9-4.3-2.8-8.8-2.6-12.5c0.2-3.2,1.3-5.4,2.9-6.2l59.7-26.1c-0.1,5,1.1,10.9,3.7,16.8
		c2.6,5.9,6.1,10.8,9.9,14.2L197.5,98.2z"/>
	<path style="fill:#414042;" d="M258.5,42.6c3.9-2.7,8.4-2.1,11.6,1.3c-2.7-5-8.1-6.6-13.3-4.8C257.4,40.2,258,41.4,258.5,42.6z"/>
	<path style="fill:#414042;" d="M227.5,52.9L179,73.5c-1,0.4-1.5,1.6-1,2.6c0.3,0.8,1,1.2,1.8,1.2c0.3,0,0.5-0.1,0.8-0.2l48.6-20.6
		c1-0.4,1.5-1.6,1-2.6C229.7,52.9,228.5,52.5,227.5,52.9z"/>
</g>
<defs>
	<filter id="Adobe_OpacityMaskFilter" filterUnits="userSpaceOnUse" x="110.1" y="185.6" width="169.8" height="188.6">
		<feColorMatrix  type="matrix" values="1 0 0 0 0  0 1 0 0 0  0 0 1 0 0  0 0 0 1 0"/>
	</filter>
</defs>
<mask maskUnits="userSpaceOnUse" x="110.1" y="185.6" width="169.8" height="188.6" id="SVGID_1_">
	<g style="filter:url(#Adobe_OpacityMaskFilter);">
		<linearGradient id="SVGID_2_" gradientUnits="userSpaceOnUse" x1="194.6585" y1="260.3882" x2="194.6585" y2="185.568">
			<stop  offset="0" style="stop-color:#000000"/>
			<stop  offset="8.659510e-02" style="stop-color:#070707"/>
			<stop  offset="0.2172" style="stop-color:#1C1C1C"/>
			<stop  offset="0.3755" style="stop-color:#3E3E3E"/>
			<stop  offset="0.5557" style="stop-color:#6D6D6D"/>
			<stop  offset="0.7542" style="stop-color:#AAAAAA"/>
			<stop  offset="0.9651" style="stop-color:#F2F2F2"/>
			<stop  offset="1" style="stop-color:#FFFFFF"/>
		</linearGradient>
		<rect x="59.6" y="185.6" style="fill:url(#SVGID_2_);" width="270.1" height="74.8"/>
	</g>
</mask>
<g style="opacity:0.4;mask:url(#SVGID_1_);">
	<path style="fill:#414042;" d="M278,357.1c-2.9,6.6-8.5,11.3-14.7,12.5c-3.4,2.9-6.9,4.6-10.2,4.6c-1.3,0-2.5-0.2-3.6-0.7l-9.3-4.1
		c-3.2-1.4-5.2-4.5-6.1-8.7l-57.5-25.1c-2.3,1.4-4.6,2.2-6.9,2.2c-1.3,0-2.5-0.2-3.6-0.7c0,0,0,0,0,0l-9.3-4.1
		c-4.4-1.9-6.6-7.2-6.5-14l-1.2-0.5c-1.7,1-3.5,1.6-5.1,1.6c-1,0-2-0.2-2.9-0.6l-7-3.1c-3-1.3-4.9-4.6-5.2-9.3c0-0.4,0-0.9,0-1.3
		l-3-1.3c-1.3,0.7-2.7,1.1-4,1.1c-0.8,0-1.6-0.2-2.4-0.5l-5.3-2.3c-2.5-1.1-3.9-3.7-4.2-7.4c-0.2-3.2,0.6-7.1,2.2-10.7
		c3-6.8,7.9-11.3,12.3-11.3c0.8,0,1.6,0.2,2.4,0.5l5.3,2.3c1.9,0.8,3.2,2.6,3.8,5.1l2.9,1.3c2.8-2.5,5.7-4,8.4-4c1,0,2,0.2,2.9,0.6
		l7,3.1c2.4,1.1,4,3.5,4.7,6.6l1.2,0.5c3.6-3.4,7.5-5.4,11.1-5.4c1.3,0,2.5,0.2,3.6,0.7l9.3,4.1c3.1,1.4,5.2,4.4,6.1,8.7l0.9,0.4
		v-18.2c-7.8-0.2-17.4-1.4-17.4-5.4v-5.6c0-1.9,2.1-3.1,5.1-3.9l-20-67.7c-4.7-0.3-8.1-2.6-8.1-5.6c0-3.3,3.9-5.7,9.1-5.7
		c5.2,0,9.1,2.5,9.1,5.7c0,1.9-1.4,3.6-3.6,4.6l5.6,17.9l21.1,16.2v-22.2c-3.5-0.8-5.9-2.8-5.9-5.4c0-3.3,3.9-5.7,9.1-5.7
		c5.2,0,9.1,2.5,9.1,5.7c0,2.5-2.4,4.6-5.9,5.4v22.2l23-17.5l4.8-16.6c-2.2-1-3.6-2.7-3.6-4.6c0-3.3,3.9-5.7,9.1-5.7
		s9.1,2.5,9.1,5.7c0,3-3.4,5.4-8.1,5.6l-20.1,68c2.5,0.8,4.2,2,4.2,3.6v5.6c0,4-9.6,5.1-17.4,5.4v20.1c0,0.5-0.1,1-0.3,1.5
		l48.9,21.4c2.3-1.4,4.7-2.2,6.9-2.2c1.3,0,2.5,0.2,3.6,0.7l9.3,4.1c4.1,1.8,6.3,6.6,6.5,12.7C280.4,343.1,280.9,350.4,278,357.1z
		 M175.5,219.2l12.8,44.3c2.3-0.2,4.6-0.3,6.7-0.4V234L175.5,219.2z M222.6,218.3L201.4,234v29.1c2.5,0.1,5.2,0.2,7.7,0.5
		L222.6,218.3z M274.4,355.5c3.4-7.8,1.3-16.5-4.9-19.9c0,0-0.1,0-0.1-0.1c-0.1-0.1-0.2-0.1-0.3-0.2c0,0-0.1,0-0.1-0.1
		c0,0-0.1,0-0.1,0l0,0c0,0,0,0,0,0c-3-1-9,3.4-12.8,12.2c-3.7,8.5-3.1,16-0.2,17.7c0,0,0,0,0,0l0,0c0,0,0.1,0,0.1,0.1
		c0,0,0.1,0,0.1,0c0.1,0.1,0.3,0.1,0.4,0.1c0,0,0.1,0,0.1,0c1.2,0.4,2.4,0.6,3.6,0.6C265.9,366,271.6,361.8,274.4,355.5z
		 M256.4,369.5c-0.4-0.1-0.8-0.2-1.1-0.3c-0.3-0.1-0.6-0.2-0.9-0.3c-0.1,0-0.1-0.1-0.2-0.1l0,0c-0.1,0-0.2-0.1-0.2-0.1
		c-0.2-0.1-0.3-0.2-0.5-0.3c-4.9-3.1-5.4-12.7-1.2-22.5c3.8-8.6,10.2-14.7,15.5-14.7c0.6,0,1.2,0.1,1.8,0.2c0.2,0,0.4,0.1,0.5,0.1
		c0.1,0,0.1,0.1,0.2,0.1c0.1,0,0.1,0.1,0.2,0.1c0.3,0.1,0.5,0.3,0.8,0.4c0.3,0.2,0.7,0.4,1,0.6c-0.7-2.1-1.9-3.5-3.3-4.2
		c-0.6-0.3-1.3-0.4-2-0.4c-5.4,0-12.6,7.2-16.8,16.7c-5.4,12.3-4,22.8,0.8,24.9c0.6,0.3,1.3,0.4,2,0.4
		C254.1,370.3,255.3,370,256.4,369.5z M172,333.5c-2.8-1.5-4.6-4.7-4.9-9.3c-0.3-4.3,0.7-9.4,2.9-14.3c3.9-8.8,10.5-15,16.2-15h0
		c0.9,0,1.7,0.2,2.5,0.4c-0.7-1.4-1.6-2.5-2.8-3c-0.6-0.3-1.3-0.4-2-0.4c-5.4,0-12.6,7.2-16.8,16.7c-5.4,12.3-3.9,22.8,0.8,24.9
		c0.6,0.3,1.3,0.4,2,0.4C170.5,333.8,171.2,333.7,172,333.5z M154.1,302.9c1.8-4,4-7.6,6.4-10.6l-2.1-0.9c-2.3-1-7,2.5-9.9,9.1
		c-2.8,6.4-2.3,12.4,0,13.4l2.1,0.9C151.2,311,152.3,307,154.1,302.9z M144.9,298.9c3-6.9,8.1-11.6,12.6-11.6
		c-0.4-0.7-1-1.3-1.6-1.5c-0.4-0.2-0.8-0.3-1.3-0.3c-3.3,0-8.7,4.3-12.2,12.3c-1.8,4.2-2.7,8.5-2.5,12.1c0.2,3.1,1.2,5.3,2.8,6
		c0.4,0.2,0.8,0.3,1.3,0.3c0.3,0,0.6,0,0.9-0.1c-1.3-1.4-2.1-3.5-2.3-6.1C142.5,306.5,143.2,302.6,144.9,298.9z M131.7,293.1
		c1.3-2.9,2.8-5.4,4.5-7.6l-2.9-1.3c-0.1-0.1-0.3-0.1-0.4-0.1c-1.7,0-4.5,2.5-6.3,6.7c-1,2.3-1.5,4.7-1.4,6.7
		c0.1,1.4,0.5,2.5,1.2,2.8l2.9,1.3C129.7,298.8,130.5,295.9,131.7,293.1z M123,289.3c2.1-4.7,5.4-8.1,8.6-8.9
		c-0.2-0.3-0.5-0.6-0.8-0.7c-2.2-1-6.8,2.5-9.5,8.8c-1.3,3.1-2,6.3-1.8,8.9c0.1,2.1,0.8,3.6,1.8,4.1c0.2,0.1,0.5,0.2,0.8,0.2
		c0.1,0,0.2-0.1,0.3-0.1c-0.6-1-0.9-2.3-1-3.8C121.1,295.2,121.7,292.2,123,289.3z M197.5,303.4c-0.6-0.1-1.1-0.4-1.6-0.7l-8.4-3.7
		c-0.4-0.2-0.9-0.3-1.4-0.3h0c-3.4,0-9,4.4-12.6,12.7c-1.9,4.3-2.8,8.8-2.6,12.5c0.2,3.2,1.3,5.4,2.9,6.2l59.7,26.1
		c-0.1-5,1.1-10.9,3.7-16.8c2.6-5.9,6.1-10.8,9.9-14.2L197.5,303.4z"/>
	<path style="fill:#414042;" d="M258.5,359.1c3.9,2.7,8.4,2.1,11.6-1.3c-2.7,5-8.1,6.6-13.3,4.8C257.4,361.4,258,360.2,258.5,359.1z
		"/>
	<path style="fill:#414042;" d="M227.5,348.8L179,328.1c-1-0.4-1.5-1.6-1-2.6c0.3-0.8,1-1.2,1.8-1.2c0.3,0,0.5,0.1,0.8,0.2
		l48.6,20.6c1,0.4,1.5,1.6,1,2.6C229.7,348.7,228.5,349.2,227.5,348.8z"/>
</g>
</svg>
